<?xml version="1.0" standalone="no"?>
<!DOCTYPE svg PUBLIC "-//W3C//DTD SVG 20010904//EN"
 "http://www.w3.org/TR/2001/REC-SVG-20010904/DTD/svg10.dtd">
<svg version="1.0" xmlns="http://www.w3.org/2000/svg"
 width="1024.000000pt" height="1024.000000pt" viewBox="0 0 1024.000000 1024.000000"
 preserveAspectRatio="xMidYMid meet">

<g transform="translate(0.000000,1024.000000) scale(0.100000,-0.100000)"
fill="#000000" stroke="none">
<path d="M0 5120 l0 -5120 4313 0 4313 0 29 30 c15 16 32 27 37 24 4 -3 8 2 8
10 0 9 4 16 9 16 14 0 86 72 115 114 27 40 34 89 16 116 -8 13 -10 13 -10 -2
0 -9 -12 -30 -26 -45 -14 -15 -23 -23 -20 -16 3 6 0 14 -6 16 -7 3 -4 6 7 6
14 1 16 4 8 12 -8 8 -26 -1 -67 -34 -31 -25 -65 -49 -76 -52 -10 -3 -22 -15
-25 -25 -3 -10 -14 -21 -23 -24 -9 -3 -29 -17 -44 -30 -14 -14 -38 -28 -53
-32 -21 -5 -27 -3 -32 15 -6 22 -18 27 -28 12 -3 -6 -13 -10 -23 -10 -38 -1
-52 -5 -52 -13 0 -5 -5 -6 -10 -3 -6 4 -18 1 -26 -6 -8 -6 -16 -10 -18 -8 -4
4 148 123 253 197 45 33 180 102 198 102 24 0 72 64 82 108 5 26 8 48 7 50 -2
1 -36 -18 -77 -42 -114 -68 -136 -69 -66 -1 32 30 57 60 55 66 -2 6 -26 -9
-53 -35 -28 -25 -63 -53 -80 -61 -16 -8 -52 -28 -80 -45 -27 -16 -60 -34 -72
-39 -12 -6 -41 -23 -65 -38 -51 -33 -135 -73 -152 -73 -7 0 -27 13 -44 28
l-32 29 28 25 c60 57 393 233 496 263 36 11 72 15 94 11 60 -11 94 -14 145
-15 27 -1 46 -5 43 -10 -3 -5 8 -14 24 -20 18 -6 34 -21 40 -36 5 -14 14 -23
20 -20 5 3 11 0 11 -7 2 -25 -3 -53 -12 -58 -4 -3 -4 -12 1 -20 5 -9 4 -20 -3
-28 -6 -8 -12 -35 -13 -61 -4 -75 -5 -80 -15 -86 -5 -4 -9 -15 -9 -26 0 -10
-4 -19 -10 -19 -5 0 -10 -9 -10 -19 0 -11 -9 -23 -20 -26 -11 -3 -20 -13 -20
-20 0 -8 -4 -17 -10 -20 -6 -3 -7 1 -4 10 5 11 2 14 -10 9 -9 -3 -16 -10 -16
-15 0 -5 -9 -9 -19 -9 -21 0 -22 -23 -3 -42 15 -15 15 -51 0 -66 -9 -9 29 -12
174 -12 l187 0 -4 54 c-4 76 -15 117 -27 110 -7 -5 -9 2 -6 19 3 15 2 24 -2
22 -5 -3 -8 38 -7 90 1 110 14 122 48 48 19 -41 23 -71 27 -195 l4 -148 464 0
464 0 0 675 c0 379 -4 675 -9 675 -12 0 -40 61 -34 76 3 7 13 16 24 19 15 5
19 16 19 53 0 26 -7 55 -15 65 -16 22 -62 204 -53 212 3 4 20 -1 37 -10 l31
-16 0 34 c0 30 -4 35 -32 43 -30 9 -33 13 -33 49 0 38 2 40 33 43 l32 3 -1 97
c0 53 -3 90 -6 82 -20 -54 -44 -41 -36 20 3 20 1 46 -5 56 -15 28 7 94 30 94
16 0 18 12 18 120 0 111 -1 120 -17 111 -165 -82 -242 -96 -493 -88 -196 6
-290 21 -298 46 -3 10 2 12 22 7 81 -20 205 -27 368 -21 185 7 229 13 236 33
2 8 -10 12 -37 12 -43 0 -53 12 -23 29 16 10 16 12 0 25 -10 7 -53 16 -96 20
-42 3 -93 11 -112 16 -19 6 -54 10 -77 10 -43 0 -57 12 -27 24 36 14 121 4
248 -29 139 -36 256 -46 256 -23 0 6 11 1 25 -12 l25 -24 -2 440 -3 439 -35
17 c-45 22 -234 51 -279 43 -64 -12 -260 -87 -318 -122 -50 -29 -55 -31 -35
-10 60 63 308 157 417 157 63 0 175 -19 228 -39 l27 -11 0 752 c0 413 -3 749
-6 746 -3 -3 -11 -35 -19 -71 -7 -36 -21 -80 -31 -99 l-18 -33 -7 37 c-5 20
-13 123 -18 230 -30 557 -51 917 -56 949 -12 68 11 117 86 191 38 38 69 69 69
71 0 6 -1016 -5 -1023 -12 -4 -4 -10 -376 -12 -827 -10 -1609 -13 -1841 -29
-1872 -22 -43 -90 -100 -133 -111 -62 -17 -466 -13 -538 4 -33 9 -71 18 -85
21 -14 3 -51 14 -83 25 -85 30 -80 17 5 -16 40 -16 89 -37 108 -48 19 -11 64
-36 100 -55 181 -98 352 -279 451 -473 92 -184 181 -507 219 -799 14 -104 21
-120 56 -120 25 0 33 -9 51 -59 15 -43 10 -51 -29 -51 -28 0 -30 -2 -25 -28 3
-15 10 -53 15 -85 6 -31 18 -67 26 -78 l14 -21 4 23 c3 21 8 24 40 23 46 -2
62 -14 99 -79 42 -72 39 -87 -13 -81 -23 3 -55 15 -71 27 -16 11 -31 18 -34
16 -8 -9 20 -76 35 -82 7 -3 156 -5 330 -6 187 0 338 -5 369 -11 47 -10 54
-15 77 -58 14 -26 26 -50 26 -52 0 -3 -24 -3 -53 0 -29 2 -87 -3 -128 -11 -92
-20 -181 -26 -379 -27 -85 0 -161 -4 -168 -8 -10 -7 -6 -23 17 -73 18 -38 37
-105 46 -163 10 -55 24 -125 32 -155 9 -31 21 -81 27 -111 7 -31 29 -80 50
-112 71 -106 59 -174 -42 -250 -65 -50 -75 -48 -23 5 84 84 90 135 26 228 -49
71 -61 102 -95 240 -16 64 -35 130 -44 146 -18 36 -97 107 -146 133 -85 44
-350 65 -538 43 -253 -30 -648 -139 -749 -208 -53 -36 -73 -43 -73 -25 0 6 5
10 10 10 6 0 10 11 10 25 0 14 4 25 10 25 6 0 6 9 0 26 -24 62 -13 112 47 208
31 50 70 106 87 124 33 36 199 122 234 122 11 0 23 4 26 9 11 17 -21 19 -53 3
-26 -12 -34 -13 -41 -3 -6 10 -12 10 -29 1 -17 -9 -26 -9 -37 1 -8 6 -17 9
-21 6 -3 -4 -12 -2 -20 4 -10 9 -19 7 -38 -5 -29 -19 -65 -13 -65 10 0 8 -5
14 -11 14 -8 0 -10 14 -6 40 3 25 1 38 -5 34 -6 -4 -5 3 1 15 8 14 8 21 1 21
-5 0 -10 4 -10 10 0 5 7 7 16 3 12 -4 14 0 8 21 -5 20 1 37 22 69 40 61 120
160 204 252 40 44 101 116 136 160 116 148 215 277 227 296 6 10 65 67 130
126 65 59 113 109 108 111 -17 6 -74 -34 -119 -83 -42 -47 -82 -63 -62 -26 32
62 -8 40 -56 -31 -23 -33 -25 -41 -13 -49 9 -5 10 -9 2 -9 -7 0 -45 -33 -85
-73 -40 -40 -84 -82 -98 -93 -25 -20 -67 -65 -195 -209 -94 -106 -230 -245
-240 -245 -4 0 0 11 9 24 9 14 13 33 10 43 -4 14 -3 15 4 4 7 -9 9 -2 9 25 -1
25 18 86 52 172 30 73 51 136 47 139 -9 10 -101 -91 -116 -127 -7 -16 -19 -30
-27 -30 -8 0 -12 4 -9 9 3 5 8 26 12 47 11 77 103 304 123 304 6 0 6 -11 0
-32 -6 -18 -11 -40 -13 -48 -1 -8 -7 -32 -15 -53 -18 -52 -8 -70 14 -24 10 21
29 45 41 54 13 8 24 21 24 29 0 7 6 17 13 21 18 11 117 162 117 178 0 8 -9 17
-20 20 -11 3 -20 11 -20 16 0 5 -11 22 -25 36 -28 31 -19 52 19 48 32 -4 41
20 15 39 -16 11 -19 20 -14 38 5 12 14 27 21 33 6 5 15 26 19 45 7 31 6 33 -8
21 -9 -7 -19 -21 -22 -31 -3 -10 -15 -20 -27 -22 -15 -2 -38 -33 -80 -108 -68
-120 -84 -140 -109 -140 -20 0 -41 -25 -91 -109 -25 -41 -42 -57 -68 -66 -19
-7 -35 -18 -35 -26 0 -8 -8 -29 -18 -46 -9 -18 -26 -85 -37 -150 -30 -176 -31
-182 -40 -158 -4 11 -7 45 -6 77 1 50 -1 55 -16 47 -10 -5 -18 -16 -18 -24 0
-8 -4 -15 -10 -15 -13 0 -13 17 0 25 6 4 8 10 5 14 -2 5 4 16 15 26 11 10 20
24 20 30 0 7 7 18 15 25 8 7 13 16 10 20 -3 4 6 29 20 54 14 26 25 49 25 51 0
10 -46 -11 -68 -32 -34 -32 -47 -24 -45 26 1 24 -3 41 -9 41 -6 0 -16 8 -23
17 -10 14 -17 15 -41 5 -16 -6 -62 -19 -102 -28 -61 -14 -82 -15 -124 -5 -38
8 -54 8 -64 0 -8 -6 -20 -9 -29 -6 -8 4 -17 2 -20 -4 -4 -5 -11 -7 -16 -3 -5
3 -7 9 -4 13 9 15 -112 101 -143 101 -11 0 -39 18 -63 40 -24 22 -48 40 -52
40 -5 0 -6 3 -4 8 3 4 -1 13 -9 20 -9 8 -14 9 -14 2 0 -12 74 -86 110 -111 20
-13 21 -18 11 -37 -9 -17 -9 -22 1 -23 27 -3 34 -5 81 -23 80 -32 57 -48 -49
-36 -135 16 -282 59 -322 97 -23 20 -24 23 -7 19 35 -10 83 -13 92 -7 5 3 14
19 21 34 21 48 -12 164 -55 193 -26 17 -54 13 -131 -17 -13 -5 -24 -9 -26 -9
-2 0 -11 19 -21 42 -9 24 -28 58 -42 76 -22 29 -24 41 -19 80 16 125 33 193
53 205 17 11 17 94 -1 222 -38 262 -49 556 -31 784 l7 86 -65 -67 c-35 -37
-79 -96 -98 -132 -19 -36 -37 -66 -40 -66 -8 0 -19 63 -19 107 0 38 -56 162
-76 170 -7 2 -22 20 -33 38 -13 23 -31 37 -53 43 -18 4 -38 18 -44 30 -6 12
-18 30 -26 39 -18 22 -48 82 -48 98 0 6 -7 20 -16 31 -14 17 -15 7 -11 -116 4
-124 7 -144 41 -245 39 -117 144 -345 158 -345 16 0 7 -40 -26 -117 -19 -43
-53 -132 -76 -198 -23 -66 -55 -148 -72 -182 -35 -71 -134 -196 -151 -190 -7
2 -11 20 -9 43 3 41 -8 56 -70 96 -15 10 -29 31 -33 48 -9 39 -27 27 -44 -30
-16 -53 -62 -130 -78 -130 -9 0 -13 15 -13 43 0 24 -6 49 -12 56 -11 11 -10
12 1 6 12 -7 13 4 9 66 -3 41 -2 99 1 129 7 61 4 93 -9 85 -4 -3 -6 5 -2 17 3
14 2 19 -6 14 -7 -4 -12 -24 -13 -44 0 -30 -2 -33 -9 -17 -8 19 -9 19 -9 -3
-1 -12 -8 -25 -16 -28 -12 -5 -13 -10 -4 -20 6 -7 8 -18 4 -25 -6 -8 -10 -7
-16 2 -6 9 -9 10 -9 2 0 -6 -3 -19 -7 -29 -4 -12 -3 -15 5 -10 8 5 12 -1 11
-16 0 -13 -3 -17 -6 -10 -2 6 -8 12 -13 12 -13 0 -18 -36 -8 -54 7 -12 6 -16
-4 -14 -9 2 -14 -12 -16 -47 -2 -36 -6 -45 -13 -35 -8 12 -10 9 -8 -10 3 -48
-1 -71 -11 -65 -5 3 -10 -3 -10 -14 0 -12 -4 -21 -10 -21 -5 0 -7 -7 -4 -15 4
-8 1 -15 -4 -15 -6 0 -14 -16 -18 -35 -6 -31 -24 -60 -24 -38 0 5 27 108 60
228 69 250 128 414 276 769 58 137 120 296 138 355 44 140 94 311 99 336 2 17
6 15 20 -12 27 -51 118 -114 188 -130 34 -8 64 -12 66 -9 11 11 -10 25 -48 31
-46 8 -115 50 -99 60 5 3 10 3 10 -2 0 -4 4 -1 9 6 6 9 6 22 0 33 -8 16 -5 20
20 29 32 11 48 36 32 52 -15 15 -1 37 24 37 28 0 42 17 26 33 -6 6 -11 19 -11
30 0 15 7 18 38 17 57 -3 58 -2 14 30 -23 17 -42 32 -42 35 0 3 26 -7 57 -20
78 -35 94 -26 42 26 -45 45 -46 55 -3 38 44 -18 69 -12 102 21 l30 30 174 2
c95 2 290 3 433 3 143 0 465 1 715 2 250 1 471 0 490 0 l35 -2 3 103 3 103
-28 -3 c-25 -3 -29 -8 -34 -46 -3 -24 -2 -45 3 -48 13 -8 9 -41 -7 -57 -16
-16 -100 -12 -123 6 -12 9 -10 93 4 139 4 14 -6 16 -84 15 l-88 0 4 -58 c4
-54 2 -60 -26 -88 -51 -51 -104 -53 -161 -5 -59 50 -32 141 43 146 17 1 -258
5 -612 8 -622 5 -644 6 -658 24 -8 11 -14 23 -14 26 0 13 128 23 395 29 l270
6 -3 59 c-4 86 12 106 85 106 31 0 54 3 50 6 -3 4 -106 8 -229 10 -179 4 -226
7 -237 19 -10 9 -12 18 -6 24 14 13 84 14 738 12 l577 -1 0 -23 c0 -13 -5 -28
-12 -35 -9 -9 -8 -12 5 -12 25 0 37 -32 37 -103 l0 -65 51 -4 c28 -1 53 -1 55
1 2 2 4 68 4 145 l0 141 -801 -3 -801 -4 -63 31 c-85 42 -88 56 -14 57 50 0
66 5 104 32 25 18 47 32 49 32 2 0 1 -12 -2 -26 -4 -25 -3 -25 19 -14 17 9 58
11 154 7 72 -4 147 -4 167 0 32 5 36 8 28 24 -15 27 -12 85 5 99 10 8 75 13
211 15 177 3 198 1 214 -15 15 -15 16 -25 9 -61 -4 -24 -8 -47 -9 -51 0 -5 16
-8 35 -8 l34 0 -6 48 c-4 38 -2 52 12 66 16 16 16 18 1 35 -9 10 -16 26 -16
37 0 10 -5 26 -10 34 -10 16 -13 16 -395 26 -110 3 -216 9 -235 13 -20 4 -46
4 -58 0 -32 -12 -29 14 6 37 24 16 58 18 352 22 179 2 330 5 335 6 6 2 11 15
13 30 2 27 -11 32 -73 29 -11 -1 -41 -3 -67 -4 -27 -1 -48 -6 -48 -12 0 -5
-11 -7 -25 -5 -13 3 -26 1 -27 -4 -6 -18 -88 -10 -133 13 -42 21 -222 20 -235
-1 -5 -8 -11 -12 -14 -9 -3 3 6 22 21 42 17 25 38 40 62 46 51 14 104 16 119
7 7 -4 16 -5 20 -1 3 3 0 10 -8 15 -8 6 -11 10 -7 10 4 0 32 -15 62 -34 49
-32 65 -35 65 -15 0 4 -7 15 -16 23 -14 15 -14 16 0 16 9 0 16 -5 16 -10 0
-11 770 -13 796 -3 17 6 -4 43 -24 43 -7 0 -11 4 -7 9 3 5 1 12 -5 16 -6 4 -7
11 -4 17 4 7 2 8 -4 4 -6 -4 -8 -14 -5 -23 5 -13 2 -15 -12 -10 -9 4 -24 2
-33 -5 -12 -10 -16 -10 -19 -1 -4 10 -10 10 -24 2 -15 -7 -27 -6 -49 5 -26 12
-32 12 -44 1 -12 -12 -15 -12 -20 1 -3 9 0 22 8 30 12 12 15 12 18 0 2 -9 10
-11 23 -6 18 7 18 9 -9 21 -23 11 -30 11 -34 1 -2 -6 -8 -12 -13 -12 -6 0 -8
4 -5 9 3 4 -18 9 -47 9 -71 1 -542 12 -542 13 0 0 -18 2 -40 5 -22 2 -45 6
-52 9 -24 8 -22 -12 2 -25 14 -7 25 -17 25 -22 0 -10 -55 26 -65 42 -3 5 -13
6 -21 3 -12 -4 -15 0 -12 23 l3 29 225 3 c125 2 229 7 234 12 7 7 -73 10 -217
10 -218 0 -228 1 -235 20 -6 16 -12 8 -30 -39 -17 -44 -39 -74 -93 -126 -72
-70 -111 -84 -47 -17 42 44 98 121 98 135 0 5 -12 1 -27 -9 -28 -17 -28 -17 3
18 18 20 39 58 48 86 l17 49 695 2 c525 2 699 -1 710 -10 21 -17 21 -2435 0
-2465 -14 -18 -34 -19 -673 -22 -362 -1 -664 -4 -671 -7 -10 -4 -7 -16 12 -48
l26 -43 -34 -49 c-19 -28 -45 -61 -60 -74 -51 -47 -38 -57 156 -120 l127 -41
158 5 c87 3 423 7 747 9 658 5 611 0 665 77 l23 34 -4 1455 c-4 1355 -6 1458
-22 1492 -16 33 -66 75 -109 91 -10 4 -361 7 -780 7 -437 0 -768 5 -777 10 -9
5 -19 5 -27 -2 -8 -6 -31 -8 -58 -5 -24 4 -47 2 -50 -3 -3 -5 0 -36 6 -69 17
-82 3 -125 -61 -185 -45 -42 -73 -58 -68 -38 6 21 -15 128 -31 160 -10 20 -53
73 -95 117 -41 44 -76 84 -76 88 0 14 148 -124 175 -163 30 -44 45 -91 45
-143 0 -50 16 -45 54 17 21 34 31 64 34 105 6 87 -17 124 -110 175 -37 21 -48
23 -48 12 0 -8 8 -19 18 -25 16 -9 16 -10 -1 -17 -24 -9 -80 45 -101 97 -15
36 -15 37 9 43 18 5 25 13 25 31 0 15 6 25 14 25 16 0 76 -68 76 -86 0 -6 9
-19 21 -30 20 -18 20 -18 14 11 l-7 30 32 -33 c28 -29 36 -32 83 -30 29 1 60
-1 70 -6 37 -17 15 20 -48 82 -36 34 -65 70 -65 79 0 11 -6 14 -22 9 -92 -25
-132 -20 -182 25 -32 28 -35 29 -46 12 -9 -15 -10 -13 -5 12 13 66 17 126 11
160 -6 31 -11 36 -27 31 -63 -20 -64 -19 -18 22 60 54 141 174 161 240 9 28
14 52 11 52 -3 0 -28 -20 -55 -45 -28 -25 -53 -43 -56 -41 -2 3 12 24 32 48
21 24 52 72 69 108 28 56 32 75 32 145 0 74 -3 86 -38 152 -38 71 -72 112 -83
100 -3 -3 -1 -53 5 -110 14 -127 2 -218 -36 -289 -14 -27 -28 -46 -30 -44 -3
2 1 32 8 66 8 42 10 113 6 221 -6 174 -15 208 -80 297 -48 67 -50 78 -20 100
l27 19 -69 77 c-38 42 -74 76 -80 76 -5 -1 -19 -15 -30 -32 -31 -49 -48 -47
-25 4 11 24 20 57 20 75 0 40 12 48 35 23 31 -34 36 -22 9 20 l-27 41 -30 -53
c-44 -79 -91 -132 -170 -196 -40 -31 -81 -68 -91 -82 -36 -46 -137 -140 -202
-186 -105 -75 -90 -43 30 60 37 33 98 94 135 136 37 42 73 74 79 72 7 -2 12 1
12 7 0 6 7 11 15 11 25 0 130 113 158 170 33 66 34 104 5 159 -24 43 -98 140
-109 141 -4 0 -10 -31 -13 -70 -11 -104 -26 -97 -26 12 0 115 -10 151 -60 225
-51 75 -136 170 -145 161 -4 -3 18 -45 49 -92 58 -88 93 -186 77 -213 -5 -11
-10 -1 -14 31 -7 52 -41 124 -98 208 -42 61 -42 77 -2 103 23 15 53 69 53 96
0 7 -19 -13 -42 -44 -46 -60 -63 -69 -73 -38 -25 81 -236 294 -322 326 -68 25
-78 39 -23 30 75 -11 142 -48 203 -111 31 -32 57 -62 57 -66 0 -5 5 -8 11 -8
28 0 -119 163 -171 190 -20 10 -68 24 -106 30 -38 6 -100 18 -139 26 -38 8
-101 16 -140 18 l-70 3 -13 44 c-7 24 -12 91 -12 149 0 58 0 113 -1 122 0 15
31 65 73 119 21 26 108 76 168 96 l55 18 -62 3 c-65 3 -113 -15 -204 -75 -26
-17 -44 -22 -62 -18 -23 6 -25 11 -21 38 3 18 7 38 10 45 2 8 -12 12 -51 12
-46 0 -55 -3 -55 -17 0 -26 20 -52 27 -35 7 18 40 15 47 -5 9 -22 -5 -34 -51
-44 -21 -5 -78 -22 -128 -38 -49 -16 -126 -39 -169 -51 -77 -21 -80 -21 -98
-2 -14 14 -20 39 -25 105 -4 66 -9 87 -20 87 -11 0 -14 -12 -12 -47 3 -35 -1
-49 -14 -57 -22 -14 -44 7 -62 60 -9 26 -20 40 -34 42 -29 5 -28 -32 4 -83 30
-49 31 -58 5 -50 -12 4 -35 -2 -59 -15 -31 -18 -47 -21 -87 -15 -124 17 -191
9 -256 -29 -51 -30 -112 -92 -123 -125 -3 -12 -11 -21 -16 -21 -13 0 -12 6 10
48 19 37 27 45 114 116 30 25 44 43 38 49 -5 5 -6 21 -1 38 5 16 6 29 2 29 -3
0 -1 5 5 11 6 6 8 19 6 30 -5 17 -15 19 -119 19 l-114 0 -1 -27 c-1 -16 -4
-80 -8 -143 l-6 -115 -250 -2 c-137 -1 -260 -2 -272 -3 -30 0 -29 -13 2 -30
14 -7 23 -15 21 -17 -6 -7 -193 88 -210 106 -8 9 -20 47 -25 85 -5 37 -15 74
-21 81 -9 10 -7 20 5 39 l17 26 -1191 0 -1191 0 -1 -82 c-1 -46 -1 -105 0
-132 1 -43 -1 -47 -14 -36 -8 7 -14 19 -13 28 2 8 -5 16 -14 17 -12 2 -18 -3
-18 -16 0 -10 -5 -19 -11 -19 -5 0 -8 4 -4 9 10 17 14 111 4 111 -5 0 -9 -4
-9 -10 0 -5 -7 -10 -15 -10 -12 0 -15 13 -15 59 0 63 -11 83 -30 54 -10 -16
-11 -16 -7 5 5 21 3 22 -78 22 -99 0 -94 8 -97 -155 l-2 -110 -6 130 -5 130
-422 3 -423 2 0 -5120z m2856 5050 c-27 -48 -82 -110 -98 -110 -5 0 11 24 36
52 25 29 46 57 46 62 0 11 32 48 37 42 2 -2 -7 -22 -21 -46z m75 13 c-8 -15
-10 -15 -11 -2 0 17 10 32 18 25 2 -3 -1 -13 -7 -23z m-33 -64 c-21 -38 -95
-127 -87 -104 2 6 24 40 47 78 48 73 78 93 40 26z m2627 -66 c-20 -32 -50 -80
-66 -106 -26 -42 -32 -47 -45 -36 -9 7 -20 24 -25 36 -5 13 -16 26 -25 30 -29
11 -32 -18 -7 -64 14 -24 22 -47 19 -50 -4 -4 -36 -15 -73 -24 l-66 -17 -29
31 c-16 17 -36 44 -44 60 -14 26 -14 31 2 48 9 11 36 24 58 30 23 7 75 26 116
44 41 18 95 38 120 45 25 6 56 17 70 24 14 7 27 12 29 10 1 -1 -13 -29 -34
-61z m79 32 c-9 -14 -18 -25 -21 -25 -5 0 5 18 20 38 17 22 18 13 1 -13z
m-616 -49 c36 -38 39 -46 17 -46 -8 0 -15 6 -15 14 0 7 -8 20 -17 27 -15 12
-16 12 -11 -3 10 -25 -1 -29 -33 -12 -25 12 -28 18 -19 34 16 29 41 24 78 -14z
m60 5 c20 -17 29 -32 23 -35 -10 -6 -71 44 -71 58 0 12 15 5 48 -23z m-1545
-3 c2 -7 -10 -33 -28 -58 -18 -25 -52 -74 -76 -110 -46 -69 -126 -160 -141
-160 -15 0 11 39 108 166 51 67 99 133 105 148 13 28 25 33 32 14z m1230 2 c9
0 17 -7 17 -15 0 -8 -4 -15 -9 -15 -5 0 -45 -35 -89 -78 -54 -53 -82 -88 -87
-110 -9 -45 -25 -40 -25 8 0 29 5 42 20 50 26 14 30 100 4 100 -14 0 -14 3 -4
16 26 30 97 56 135 48 11 -2 28 -4 38 -4z m159 -57 c29 -16 55 -29 56 -30 2
-1 -14 -18 -37 -38 -63 -57 -89 -110 -116 -239 -6 -29 -12 -30 -58 -11 -16 7
-18 4 -15 -16 2 -16 15 -30 41 -42 33 -17 37 -23 37 -57 l0 -38 -54 29 c-123
67 -157 169 -97 288 20 37 163 181 181 181 6 0 34 -12 62 -27z m-4035 -35 c-3
-8 -6 -5 -6 6 -1 11 2 17 5 13 3 -3 4 -12 1 -19z m4272 -31 c-2 -22 5 -44 20
-66 13 -18 22 -33 20 -34 -2 -2 -33 -16 -69 -32 -35 -17 -92 -54 -127 -83 -35
-29 -63 -49 -63 -44 0 22 43 131 65 164 22 34 30 38 68 39 23 0 36 3 30 6 -20
7 -15 24 14 55 35 37 45 35 42 -5z m-1424 -27 c3 -5 2 -10 -4 -10 -5 0 -13 5
-16 10 -3 6 -2 10 4 10 5 0 13 -4 16 -10z m143 -4 c15 -8 45 -21 67 -30 24 -9
32 -15 20 -15 -21 -1 -125 44 -125 54 0 8 10 6 38 -9z m522 -15 c0 -12 -10
-21 -27 -25 -16 -4 -37 -9 -48 -12 -20 -5 -20 -5 -1 10 11 9 27 16 37 16 9 0
19 7 23 15 8 21 16 19 16 -4z m-615 -11 c3 -5 -1 -10 -9 -10 -9 0 -16 5 -16
10 0 6 4 10 9 10 6 0 13 -4 16 -10z m23 -72 c12 -27 17 -48 13 -48 -8 0 -41
76 -41 95 0 13 6 4 28 -47z m209 46 c-3 -3 -12 -4 -19 -1 -8 3 -5 6 6 6 11 1
17 -2 13 -5z m1448 -92 l1 -82 -22 37 c-12 21 -32 53 -43 72 -12 18 -20 35
-19 36 19 14 47 24 63 22 18 -2 20 -10 20 -85z m-1547 61 c12 -3 22 -9 22 -13
0 -5 22 -11 48 -15 27 -3 62 -15 78 -26 36 -23 17 -25 -30 -2 -29 13 -40 14
-61 5 -19 -9 -24 -9 -19 -1 7 12 -13 29 -36 29 -13 0 -13 -1 0 -10 11 -7 12
-10 2 -10 -8 0 -16 9 -19 20 -6 22 -23 27 -23 7 0 -7 14 -35 30 -61 17 -26 26
-45 20 -41 -18 11 -63 89 -66 113 -2 19 1 22 14 16 9 -3 27 -9 40 -11z m492
-91 c23 -82 23 -82 12 -82 -4 0 -14 20 -21 45 -7 25 -17 45 -22 45 -5 0 -9 7
-9 16 0 13 -3 14 -13 5 -8 -6 -17 -8 -21 -4 -4 4 -11 1 -16 -7 -6 -8 -10 -10
-10 -4 0 15 -41 26 -54 15 -16 -12 -88 -22 -81 -10 4 5 -10 9 -31 9 -66 0 -32
8 83 19 62 6 123 15 135 20 13 5 24 8 26 6 1 -1 11 -34 22 -73z m953 71 c3 -5
2 -16 -2 -26 -6 -16 -8 -16 -29 -1 -12 8 -20 20 -17 25 7 11 42 12 48 2z
m-1454 -147 c11 -11 21 -29 20 -40 0 -15 -2 -17 -6 -6 -4 8 -26 37 -50 65 -23
27 -43 56 -43 64 0 8 13 -4 29 -25 15 -21 38 -48 50 -58z m1265 79 c3 -9 19
-15 41 -15 40 0 102 -27 89 -40 -5 -4 -52 -13 -104 -20 -88 -11 -150 -31 -192
-62 -31 -22 -32 2 -2 45 32 45 115 107 144 107 10 0 20 -7 24 -15z m-1203 -62
c13 -16 12 -17 -3 -4 -10 7 -18 15 -18 17 0 8 8 3 21 -13z m419 -35 c0 -4 -5
-8 -11 -8 -16 0 -81 -31 -101 -48 -16 -13 -18 -13 -18 0 0 9 14 21 31 28 17 7
35 24 40 36 7 21 11 23 34 12 14 -6 25 -15 25 -20z m-328 -12 c32 -15 60 -32
63 -37 8 -11 0 -12 -23 0 -9 5 -34 17 -55 27 -32 16 -82 56 -52 43 6 -3 36
-17 67 -33z m-62 -41 c0 -2 -13 1 -30 6 -16 6 -30 15 -30 20 0 5 14 3 30 -6
17 -9 30 -17 30 -20z m-588 3 c-7 -7 -12 -8 -12 -2 0 14 12 26 19 19 2 -3 -1
-11 -7 -17z m405 6 c-3 -3 -12 -4 -19 -1 -8 3 -5 6 6 6 11 1 17 -2 13 -5z
m886 -63 c37 -29 67 -55 67 -57 0 -2 -18 5 -40 16 -46 23 -120 87 -120 102 0
7 4 7 13 1 6 -6 42 -34 80 -62z m-996 43 c-3 -3 -12 -4 -19 -1 -8 3 -5 6 6 6
11 1 17 -2 13 -5z m460 0 c-3 -3 -12 -4 -19 -1 -8 3 -5 6 6 6 11 1 17 -2 13
-5z m838 -45 c-25 -23 -48 -52 -51 -65 -7 -28 -21 -31 -27 -6 -4 18 87 111
110 112 7 0 -8 -19 -32 -41z m-1655 15 c0 -9 -5 -12 -12 -8 -6 4 -17 -1 -25
-11 -7 -11 -13 -16 -13 -12 0 4 -9 3 -20 -3 -34 -18 -22 -2 18 24 44 30 52 31
52 10z m1130 -3 c0 -22 -36 -35 -44 -15 -3 7 3 18 12 23 25 15 32 13 32 -8z
m-90 -42 c0 -15 -4 -19 -16 -15 -9 3 -22 6 -30 6 -20 0 -17 18 4 23 34 9 42 7
42 -14z m74 -20 c-6 -11 -24 -2 -24 11 0 5 7 7 15 4 8 -4 12 -10 9 -15z m-677
-35 c-3 -3 -12 -4 -19 -1 -8 3 -5 6 6 6 11 1 17 -2 13 -5z m83 -44 c-30 -16
-59 -29 -65 -29 -5 0 15 13 45 29 30 16 60 29 65 29 6 0 -15 -13 -45 -29z
m2215 -2 c22 -18 71 -66 109 -106 46 -48 74 -71 85 -67 11 3 21 -5 30 -26 7
-16 11 -32 9 -35 -3 -2 -27 17 -54 43 -135 129 -172 161 -201 182 -31 21 -43
41 -25 41 4 0 25 -15 47 -32z m-2389 -111 c-14 -19 -23 -37 -18 -42 4 -5 1 -5
-5 -1 -12 6 -18 -5 -14 -26 0 -5 -6 -8 -14 -8 -23 0 -18 15 23 64 43 52 65 62
28 13z m-69 -109 c-3 -8 -6 -5 -6 6 -1 11 2 17 5 13 3 -3 4 -12 1 -19z m2728
-84 c9 -15 12 -23 6 -20 -11 7 -35 46 -28 46 3 0 12 -12 22 -26z m317 -423
c-12 -72 -43 -155 -79 -213 -39 -63 -45 -42 -9 30 51 102 73 182 76 282 l2 55
11 -44 c8 -32 7 -63 -1 -110z m-5397 59 c-4 -6 -30 -22 -58 -37 -40 -20 -48
-22 -37 -8 29 35 114 75 95 45z m-384 -247 c-9 -18 -76 -83 -85 -83 -14 0 18
58 42 77 33 28 57 31 43 6z m203 -56 c9 -15 7 -21 -8 -33 -11 -8 -25 -14 -32
-14 -18 0 -25 29 -13 51 12 24 37 22 53 -4z m4567 -29 l22 -33 -31 29 c-34 32
-37 36 -23 36 5 0 20 -15 32 -32z m1032 -18 c-28 -28 -57 -50 -65 -50 -7 0 3
13 22 28 19 15 46 37 60 49 47 41 35 23 -17 -27z m-1178 -1 c11 -17 -1 -21
-15 -4 -8 9 -8 15 -2 15 6 0 14 -5 17 -11z m-4785 -117 c0 -15 -28 -47 -35
-40 -8 8 13 48 25 48 6 0 10 -4 10 -8z m5972 -150 c58 -90 78 -146 78 -215 0
-97 -17 -101 -22 -5 -5 86 -25 141 -84 236 -14 23 -22 42 -18 42 5 0 26 -26
46 -58z m87 33 c12 0 43 -40 65 -83 13 -25 16 -45 11 -75 -12 -69 -24 -78 -25
-19 0 32 -8 69 -20 94 -11 22 -17 45 -14 49 3 5 -2 9 -10 9 -8 0 -20 9 -26 19
-13 25 -13 41 0 21 5 -8 14 -15 19 -15z m141 -36 c0 -15 -4 -31 -10 -34 -5 -3
-10 3 -10 13 0 11 -3 35 -6 53 -5 32 -5 33 10 15 9 -11 16 -32 16 -47z m-450
-60 c23 -22 38 -39 33 -39 -5 0 -20 11 -33 25 -13 14 -45 39 -72 56 -26 17
-48 33 -48 36 0 10 81 -42 120 -78z m-1005 -140 c-36 -36 -140 -97 -176 -102
-22 -4 -40 -18 -34 -27 10 -15 90 2 142 32 29 16 78 52 108 80 60 55 72 53 25
-4 -30 -37 -112 -98 -131 -98 -5 0 -9 -4 -9 -9 0 -9 -38 -24 -54 -22 -4 1 -14
-3 -22 -10 -11 -9 -24 -7 -56 8 -24 11 -61 26 -83 33 -57 18 -62 26 -35 55 15
16 30 23 44 19 12 -2 82 15 156 40 74 25 142 45 150 46 8 0 -3 -17 -25 -41z
m301 6 c28 -1 57 -6 65 -11 8 -5 34 -10 59 -11 78 -3 125 -13 140 -31 9 -9 25
-22 35 -28 23 -13 23 -27 6 -131 -19 -114 4 -229 69 -341 27 -48 53 -103 56
-122 l7 -35 -29 27 c-16 15 -51 37 -79 50 -46 21 -62 23 -205 21 -92 -1 -192
-8 -245 -17 -59 -11 -91 -13 -93 -6 -5 15 -29 12 -74 -10 -23 -11 -44 -20 -46
-20 -3 0 -2 14 2 30 5 27 3 29 -12 21 -9 -5 -28 -21 -41 -35 -14 -14 -35 -26
-47 -26 -14 0 -25 -8 -29 -20 -7 -23 -25 -26 -43 -8 -9 9 -12 6 -12 -15 0 -15
-4 -27 -10 -27 -5 0 -10 -5 -10 -10 0 -6 -10 -25 -22 -41 l-23 -31 28 -24 c15
-13 35 -24 43 -24 22 0 17 -16 -12 -34 -21 -14 -31 -15 -59 -6 -19 6 -66 11
-105 11 -38 0 -70 2 -70 4 0 2 4 15 10 29 7 18 6 29 -3 36 -7 6 -25 22 -42 36
-16 14 -55 38 -85 53 -31 14 -70 37 -87 49 -33 24 -53 28 -53 12 0 -15 -47
-12 -106 7 l-53 16 35 19 c18 10 43 18 54 18 11 0 27 11 35 24 23 35 119 53
195 38 90 -19 123 -15 212 26 85 39 222 141 252 187 22 33 15 32 -41 -11 -40
-31 -51 -35 -82 -29 -48 9 -79 27 -123 70 -35 35 -52 65 -27 50 6 -4 30 -4 54
0 33 4 43 10 38 21 -3 7 -13 14 -24 14 -10 0 -23 9 -29 20 -13 25 -3 26 77 5
80 -21 93 -19 133 19 20 18 51 41 70 51 19 10 61 36 93 59 133 93 140 97 172
90 16 -4 53 -8 81 -9z m-628 -385 c34 -16 73 -30 88 -30 26 0 26 -1 10 -19
-43 -47 -207 -90 -273 -71 -21 6 -47 17 -58 25 -19 15 -19 16 9 40 32 27 41
31 30 13 -5 -8 -2 -9 10 -5 10 4 26 7 35 7 10 0 33 16 52 35 19 19 35 35 35
35 1 0 29 -13 62 -30z m1922 -51 c-55 -50 -117 -89 -142 -89 -7 0 -2 6 12 13
14 8 59 39 100 70 41 32 77 57 80 57 3 -1 -20 -23 -50 -51z m-4450 -27 c0 -6
11 -36 25 -65 20 -41 22 -48 7 -32 -21 22 -52 96 -52 123 0 15 2 15 10 2 5 -8
10 -21 10 -28z m4390 -213 c0 -11 -4 -17 -10 -14 -5 3 -10 13 -10 21 0 8 5 14
10 14 6 0 10 -9 10 -21z m-101 -135 c-18 -29 -34 -52 -36 -51 -1 2 12 41 30
87 29 76 32 81 35 51 2 -23 -6 -48 -29 -87z m-776 40 c25 -8 40 -39 24 -52
-11 -9 -77 -3 -147 13 -14 3 -58 8 -98 12 -98 8 -79 24 40 33 88 7 141 5 181
-6z m897 -83 c-11 -22 -25 -43 -31 -46 -11 -7 15 49 33 73 19 23 18 12 -2 -27z
m277 -41 c0 -14 4 -35 8 -47 11 -34 -8 -28 -55 17 -41 40 -42 40 -18 50 38 15
63 8 65 -20z m-1190 4 c31 -9 37 -34 14 -57 -18 -19 -20 -19 -53 -2 -40 21
-139 44 -190 45 -20 0 -45 3 -55 7 -15 6 -13 9 12 15 33 8 238 2 272 -8z
m-771 -66 c-3 -18 -9 -22 -30 -20 -40 4 -37 -6 36 -165 41 -90 27 19 -17 130
-12 28 9 19 55 -24 29 -27 54 -42 79 -46 20 -2 43 -7 51 -10 8 -4 24 -6 35 -5
15 0 16 -1 3 -4 -31 -10 -27 -32 11 -59 62 -42 134 -65 208 -65 70 0 75 8 16
25 -40 11 -45 27 -11 37 16 4 9 6 -24 7 -41 1 -158 44 -158 58 0 2 46 1 103
-2 97 -7 104 -6 137 17 21 14 39 37 45 56 6 20 16 32 27 32 24 0 83 -54 75
-68 -11 -16 -97 -62 -118 -62 -11 0 -19 -5 -19 -11 0 -18 158 10 184 33 13 11
36 10 36 -1 0 -13 -134 -101 -154 -101 -9 0 -16 -4 -16 -10 0 -15 48 -12 86 6
19 9 51 36 72 60 29 35 44 44 69 44 17 0 38 -7 47 -15 16 -16 32 -113 23 -145
-3 -11 -1 -20 4 -20 17 0 41 71 60 175 l19 100 -4 -95 c-8 -201 -73 -287 -248
-332 -71 -18 -104 -20 -282 -16 -183 3 -205 6 -251 26 -27 13 -60 33 -73 45
-73 68 -179 393 -139 425 10 9 34 17 59 21 5 0 6 -9 4 -21z m-203 5 c-7 -2
-21 -2 -30 0 -10 3 -4 5 12 5 17 0 24 -2 18 -5z m1354 -50 c15 -20 47 -55 71
-78 48 -47 55 -66 15 -40 -46 29 -82 67 -108 112 -29 53 -16 56 22 6z m-1331
-25 c11 -46 51 -123 77 -150 6 -7 30 -49 51 -92 23 -47 60 -100 89 -130 28
-28 51 -55 53 -61 22 -96 135 -189 242 -200 l47 -5 -67 23 c-36 13 -78 31 -91
40 -27 17 -77 78 -77 92 0 5 -10 19 -22 32 -25 27 -18 28 59 8 136 -36 388
-28 543 17 103 30 159 68 204 140 l37 60 19 -22 c13 -15 20 -17 24 -8 9 22 0
-163 -12 -237 -12 -69 -40 -196 -50 -225 -3 -8 -7 -31 -9 -50 -2 -19 -13 -53
-23 -75 -11 -22 -23 -55 -26 -73 -4 -18 -11 -35 -15 -38 -5 -3 -9 -20 -10 -37
0 -30 -17 -84 -18 -61 -1 5 -15 29 -32 52 -29 40 -31 41 -53 27 -13 -9 -29
-34 -37 -58 -7 -23 -21 -57 -29 -75 l-16 -33 -27 21 c-19 15 -31 18 -44 11
-10 -5 -25 -12 -34 -14 -25 -8 -31 -63 -14 -115 23 -68 2 -74 -25 -8 -24 60
-83 121 -107 112 -8 -3 -24 1 -36 8 -12 8 -44 14 -72 14 -27 0 -67 7 -87 16
-48 21 -51 20 -45 -5 4 -15 -6 -10 -41 23 -26 24 -67 53 -92 66 -25 13 -56 32
-70 44 -24 20 -24 21 -5 32 11 6 34 25 52 43 29 27 33 38 33 81 0 49 -12 73
-25 52 -9 -15 -19 -12 -43 10 l-22 20 -49 -24 c-27 -14 -63 -39 -80 -56 -39
-39 -41 -25 -3 15 36 38 74 70 102 85 15 8 19 15 12 22 -8 8 -25 1 -58 -21
-26 -17 -52 -31 -58 -31 -6 0 -28 -9 -49 -20 l-37 -20 -37 20 c-21 11 -42 20
-48 20 -6 0 -23 14 -38 31 -37 43 -38 129 -2 197 25 46 34 109 15 97 -11 -7
-12 0 -12 63 1 23 4 47 8 54 4 6 3 8 -4 4 -7 -4 -11 8 -10 36 0 31 3 37 8 23
6 -16 9 -17 13 -5 3 8 6 22 6 30 0 12 22 145 37 227 5 25 23 32 78 30 39 -2
40 -3 52 -49z m461 -5 c16 -34 10 -40 -22 -19 -21 14 -24 20 -14 32 16 20 22
18 36 -13z m1003 -14 c27 -15 -11 -10 -45 6 l-30 14 30 -6 c17 -3 37 -9 45
-14z m-2055 -8 c-3 -6 -11 -11 -17 -11 -6 0 -6 6 2 15 14 17 26 13 15 -4z
m660 -46 l7 -30 -21 30 c-11 17 -21 37 -21 45 0 25 28 -10 35 -45z m2025 -53
c0 -13 -3 -13 -13 3 -8 11 -17 29 -20 40 -6 17 -4 17 13 -4 11 -13 20 -30 20
-39z m-2755 -22 c-3 -5 -21 -9 -38 -9 l-32 1 30 8 c43 11 47 11 40 0z m-100
-15 c-30 -13 -55 -10 -55 6 0 5 19 9 43 8 l42 -1 -30 -13z m-72 -2 c-7 -2 -19
-2 -25 0 -7 3 -2 5 12 5 14 0 19 -2 13 -5z m2532 -44 c101 -47 136 -133 115
-285 -15 -115 -44 -205 -88 -270 -20 -30 -39 -54 -43 -54 -4 0 0 19 8 42 18
53 24 116 12 124 -6 4 -6 11 1 19 8 10 8 15 -1 21 -14 8 -52 -33 -44 -46 3 -5
-11 -26 -32 -46 -21 -21 -39 -32 -41 -26 -2 7 8 49 21 95 31 99 44 187 28 187
-6 0 -14 -12 -17 -27 -10 -41 -100 -217 -118 -232 -21 -18 -18 -10 56 137 31
62 60 127 63 143 4 16 11 29 16 29 6 0 7 -4 4 -10 -3 -5 -1 -10 4 -10 14 0 14
37 1 45 -7 4 -7 12 0 25 9 17 5 84 -7 103 -2 4 3 7 11 7 8 0 18 -4 21 -10 3
-5 12 -10 18 -10 17 1 -41 50 -59 50 -8 0 -14 5 -14 10 0 16 37 11 85 -11z
m412 -11 c-3 -8 -6 -5 -6 6 -1 11 2 17 5 13 3 -3 4 -12 1 -19z m-4058 -36
c-19 -20 -42 -48 -51 -62 l-17 -25 6 24 c6 22 75 101 89 101 4 0 -9 -17 -27
-38z m137 -12 c-37 -44 -60 -131 -52 -194 12 -87 16 -142 10 -128 -3 6 -10 10
-15 6 -15 -9 -30 46 -36 131 -6 104 12 149 81 203 39 30 45 20 12 -18z m3384
-31 c-17 -62 -150 -324 -150 -295 0 5 20 53 45 108 25 54 56 134 68 178 18 66
24 77 35 66 11 -11 11 -22 2 -57z m287 29 c38 -42 63 -101 62 -148 -1 -42 -2
-43 -10 -15 -4 17 -10 42 -13 56 -3 14 -21 46 -41 72 -19 25 -35 48 -35 51 0
13 18 5 37 -16z m127 -29 c14 -34 14 -47 4 -82 l-12 -42 -7 63 c-4 34 -11 72
-14 82 -12 38 13 20 29 -21z m-2498 -16 c0 -21 -8 -43 -16 -50 -13 -11 -13
-12 0 -13 27 -2 -34 -22 -110 -36 -41 -7 -101 -13 -133 -14 l-58 0 32 39 c35
45 142 92 217 96 23 1 46 5 49 9 14 14 20 4 19 -31z m-622 -77 c68 -18 81 -26
40 -25 -46 0 -115 32 -132 59 l-16 25 25 -22 c13 -12 51 -29 83 -37z m651 24
c-3 -5 -11 -10 -16 -10 -6 0 -7 5 -4 10 3 6 11 10 16 10 6 0 7 -4 4 -10z
m-2431 -19 c-18 -11 -35 -25 -39 -31 -17 -28 16 -33 190 -31 110 2 181 -1 189
-8 8 -7 54 -7 146 0 133 11 134 11 152 -11 35 -43 28 -45 -139 -38 -87 3 -249
6 -360 7 -113 1 -204 5 -208 10 -3 5 -2 35 1 65 l7 56 46 0 46 0 -31 -19z
m531 10 c-6 -5 -38 -13 -72 -19 -54 -9 -66 -8 -99 9 l-38 19 109 0 c64 0 105
-4 100 -9z m1146 -44 c14 -10 59 -29 100 -42 69 -23 71 -24 29 -21 -25 2 -54
7 -64 11 -17 7 -18 5 -12 -16 4 -13 11 -49 16 -80 8 -58 22 -93 47 -117 11
-11 10 -18 -7 -42 -12 -16 -34 -39 -50 -50 l-29 -21 -19 63 c-11 35 -23 95
-27 133 -6 69 -21 162 -32 199 -6 20 0 18 48 -17z m392 -4 c-7 -2 -19 -2 -25
0 -7 3 -2 5 12 5 14 0 19 -2 13 -5z m-1340 -59 c31 -30 40 -87 10 -63 -21 18
-73 89 -73 101 0 13 31 -6 63 -38z m1592 10 c-58 -22 -266 -39 -350 -29 -68 9
-66 9 87 17 86 4 180 12 210 17 80 13 98 11 53 -5z m-438 -10 c-3 -3 -12 -4
-19 -1 -8 3 -5 6 6 6 11 1 17 -2 13 -5z m742 -46 c-7 -13 -27 -44 -45 -70 -17
-26 -37 -70 -44 -98 -7 -27 -16 -53 -21 -56 -13 -7 -10 25 5 67 15 43 98 178
109 179 4 0 2 -10 -4 -22z m-1905 -37 c20 -16 37 -32 37 -35 -1 -9 -609 -13
-622 -5 -6 3 -9 15 -7 25 3 18 18 20 198 26 107 4 211 9 230 11 103 11 126 8
164 -22z m-729 5 c16 -12 17 -16 6 -30 -7 -9 -26 -16 -42 -16 -24 0 -29 4 -29
23 0 13 3 27 7 30 11 11 38 8 58 -7z m89 -18 c-5 -13 -11 -450 -14 -973 -3
-522 -8 -945 -12 -940 -3 6 -6 86 -6 179 0 92 -3 299 -6 459 -3 161 -9 512
-12 780 -6 514 -6 517 38 517 17 0 19 -4 12 -22z m4957 -41 c-16 -16 -26 0
-10 19 9 11 15 12 17 4 2 -6 -1 -17 -7 -23z m180 -7 c19 -16 30 -30 24 -30
-14 1 -82 59 -69 60 6 0 27 -13 45 -30z m499 26 c0 -3 -4 -8 -10 -11 -5 -3
-10 -1 -10 4 0 6 5 11 10 11 6 0 10 -2 10 -4z m327 -52 c-3 -3 -12 -4 -19 -1
-8 3 -5 6 6 6 11 1 17 -2 13 -5z m-5840 -1098 l-2 -1064 -29 -6 c-35 -7 -42 1
-41 51 0 33 3 38 25 38 21 0 25 5 25 30 0 23 -5 31 -22 33 l-23 3 -2 982 c-2
540 -2 985 0 990 2 4 18 7 37 7 l34 0 -2 -1064z m2409 1019 c10 -8 15 -14 9
-14 -5 0 -19 6 -29 14 -11 8 -15 15 -10 15 6 0 19 -7 30 -15z m5003 -170 c34
-17 64 -51 90 -99 20 -39 20 -47 20 -990 0 -587 -4 -964 -10 -986 -12 -43 -55
-106 -91 -133 -33 -25 -117 -34 -158 -17 -46 19 -106 93 -120 148 -7 29 -13
158 -16 347 -2 165 -6 392 -9 505 -3 113 -8 408 -11 656 -7 446 -7 452 14 486
50 80 113 112 206 102 33 -3 71 -11 85 -19z m-2789 -13 c0 -21 -57 -65 -137
-107 -68 -35 -92 -27 -34 11 24 16 64 48 89 72 48 45 82 55 82 24z m203 2 c19
-7 11 -42 -12 -48 -9 -3 -41 -6 -71 -7 -30 -1 -68 -8 -83 -16 -16 -8 -40 -13
-54 -11 l-27 3 30 31 c16 17 38 36 49 42 21 12 142 16 168 6z m2157 -4 c0 -5
-18 -19 -40 -30 -22 -11 -40 -23 -40 -26 0 -3 5 -2 12 2 7 4 8 3 4 -4 -11 -18
-26 -14 -26 7 0 24 23 43 44 35 9 -4 16 -3 15 2 -3 18 1 24 16 24 8 0 15 -4
15 -10z m-1696 -13 c3 3 6 1 6 -5 0 -7 -15 -12 -36 -12 -31 0 -35 2 -24 15 9
10 17 12 30 5 9 -5 20 -6 24 -3z m1751 -7 c-3 -11 -2 -20 4 -20 5 0 13 9 16
20 3 11 11 20 16 20 16 0 10 -26 -11 -45 -11 -10 -18 -21 -16 -24 3 -4 -4 -18
-14 -31 l-19 -25 -9 25 c-7 17 -6 26 2 29 18 7 25 25 15 38 -12 13 -4 33 12
33 6 0 7 -9 4 -20z m-6215 -83 c27 -4 49 -13 55 -23 61 -102 94 -124 186 -124
37 0 70 -4 73 -9 11 -18 -74 -41 -152 -41 l-77 -1 39 -34 c42 -38 43 -39 6
-55 -23 -9 -22 -10 10 -5 122 18 120 18 120 2 0 -13 5 -14 28 -7 15 4 40 11
56 15 27 6 28 5 15 -11 -8 -9 -34 -26 -59 -38 l-45 -20 35 -6 35 -5 -39 -24
c-45 -28 -121 -38 -167 -22 -18 6 -35 8 -38 5 -9 -9 49 -52 96 -71 46 -19 56
-33 24 -33 -29 0 -35 -18 -9 -24 13 -3 -3 -3 -34 -1 -32 2 -58 1 -58 -1 0 -3
21 -14 47 -26 41 -18 59 -20 140 -14 75 5 93 4 93 -7 0 -18 -39 -53 -68 -62
-26 -7 -20 -25 9 -25 23 0 24 -8 3 -32 -16 -16 -15 -18 0 -24 9 -4 42 -1 73 5
71 14 73 14 67 -4 -8 -21 -85 -55 -125 -55 -19 0 -39 -4 -45 -8 -6 -4 -12 -40
-13 -79 l-2 -73 73 0 c62 0 76 3 91 21 16 19 20 19 30 5 7 -8 35 -20 62 -27
28 -6 60 -16 71 -21 16 -7 30 -5 55 7 l34 18 -25 -28 c-14 -15 -36 -31 -50
-37 -26 -10 -1235 -12 -1251 -2 -14 9 -10 981 4 992 7 6 30 12 52 14 63 5 525
1 575 -5z m3825 -33 c95 -4 117 -13 95 -39 -18 -22 -187 -21 -215 1 -13 11
-16 18 -8 21 7 2 9 12 6 20 -5 13 -2 15 13 9 10 -4 59 -10 109 -12z m-2006
-180 c21 -24 21 -28 8 -42 -13 -13 -20 -13 -47 -2 -38 16 -44 25 -30 50 15 27
42 25 69 -6z m1597 -65 c4 -8 1 -8 -14 0 -12 6 -24 16 -28 22 -4 8 -1 8 14 0
12 -6 24 -16 28 -22z m122 11 c29 -11 62 -20 75 -20 12 0 29 -5 37 -11 28 -20
-86 -1 -129 21 -23 11 -41 23 -41 25 0 7 -1 7 58 -15z m-1493 -89 l40 -8 -50
-23 c-27 -12 -72 -32 -100 -45 -86 -40 -137 -37 -189 9 -44 39 -41 61 8 52 17
-3 58 1 91 8 69 16 142 18 200 7z m185 -40 c0 -5 19 -7 43 -4 38 4 47 0 94
-38 51 -43 51 -43 31 -61 -19 -17 -21 -16 -52 6 -24 19 -36 22 -55 15 -16 -6
-28 -5 -37 2 -8 6 -14 8 -14 3 0 -4 -11 3 -24 15 -23 22 -24 22 -62 5 -22 -10
-43 -20 -49 -22 -5 -2 11 17 37 42 42 41 88 61 88 37z m1164 -167 c9 -24 -21
-15 -38 11 -16 24 -16 25 8 13 14 -6 27 -17 30 -24z m-1031 -17 c3 -8 1 -35
-4 -60 -7 -42 -18 -67 -48 -117 -5 -8 -12 -22 -14 -31 -3 -9 -26 -22 -51 -29
-26 -7 -49 -16 -51 -20 -3 -5 -14 -6 -25 -3 -13 4 -26 -1 -34 -12 -11 -15 -15
-16 -34 -4 -12 8 -22 22 -22 31 0 10 -9 22 -19 28 -12 6 -22 26 -26 51 -8 48
-3 56 20 33 9 -10 39 -21 67 -25 43 -7 55 -5 87 15 32 20 91 85 91 99 0 8 44
57 51 57 4 0 9 -6 12 -13z m2035 -100 c2 -35 -2 -64 -9 -73 -9 -11 -49 -14
-194 -14 -204 0 -195 -3 -195 71 0 81 -3 80 208 77 l187 -3 3 -58z m-2823 -54
c-13 -52 -45 -67 -45 -22 0 24 20 48 39 49 9 0 11 -8 6 -27z m-919 -325 c-3
-7 -9 -21 -12 -30 -5 -13 -17 -18 -45 -18 -42 0 -56 12 -35 30 29 24 101 38
92 18z m2334 -28 c0 -5 -2 -10 -4 -10 -3 0 -8 5 -11 10 -3 6 -1 10 4 10 6 0
11 -4 11 -10z m-2200 -45 c0 -38 -105 -124 -275 -225 -143 -85 -234 -167 -305
-273 -72 -107 -122 -171 -165 -210 -25 -24 -229 -130 -302 -158 -13 -5 -23
-13 -23 -18 0 -15 117 -183 157 -225 21 -21 79 -72 128 -111 85 -68 179 -158
145 -139 -37 21 -276 224 -342 290 -30 30 -40 35 -52 25 -22 -19 -410 -166
-901 -343 -118 -42 -213 -91 -222 -115 -3 -8 -12 -12 -19 -9 -7 3 -26 -7 -42
-22 -16 -15 -69 -63 -118 -108 -79 -72 -97 -95 -158 -205 -38 -68 -90 -160
-116 -204 -127 -215 -307 -652 -374 -905 -28 -108 -86 -284 -107 -329 -25 -52
-59 -131 -59 -136 0 -1 20 0 45 3 37 4 45 2 45 -12 0 -16 -10 -18 -80 -20 -19
-1 -33 -13 -55 -50 -16 -26 -45 -67 -63 -90 -36 -46 -73 -119 -97 -195 -15
-44 -39 -70 -53 -56 -8 8 16 83 50 155 40 84 36 78 84 146 23 33 60 95 83 139
24 44 46 85 51 90 16 20 70 195 70 227 0 19 5 39 12 46 8 8 8 15 -2 27 -14 17
-45 12 -68 -11 -7 -8 -17 -14 -22 -14 -9 0 -23 -31 -16 -37 3 -3 10 -1 17 3
17 10 59 14 59 6 0 -18 -118 -81 -276 -149 -95 -40 -176 -73 -179 -73 -12 0 8
46 34 76 14 17 34 42 45 55 10 13 40 49 65 79 26 30 71 90 100 133 28 44 86
120 128 170 42 51 89 113 105 140 16 26 33 47 38 47 16 0 38 -58 32 -85 -2
-15 -12 -29 -21 -33 -21 -8 -35 -23 -44 -44 -8 -22 15 -20 25 2 5 12 7 11 7
-4 1 -10 -21 -39 -49 -64 -27 -25 -50 -50 -50 -56 0 -6 7 -3 14 6 17 24 24 14
32 -43 12 -88 39 -63 87 81 17 52 87 230 122 310 13 30 35 84 48 120 33 89 97
214 173 340 35 58 98 172 141 255 74 142 82 153 143 198 35 26 87 69 115 96
62 58 159 110 287 151 51 16 170 59 263 95 94 37 258 97 365 134 215 76 310
115 310 129 0 5 -13 28 -30 50 -16 23 -30 50 -30 60 0 33 59 76 193 142 131
65 132 66 185 139 29 41 51 78 49 84 -1 5 -154 10 -376 12 -383 2 -398 4 -384
40 8 22 59 25 438 25 l372 0 23 33 c38 52 171 162 241 197 62 32 123 72 274
179 82 58 75 55 75 36z m-782 -62 c-15 -2 -42 -2 -60 0 -18 2 -6 4 27 4 33 0
48 -2 33 -4z m129 1 c-3 -3 -12 -4 -19 -1 -8 3 -5 6 6 6 11 1 17 -2 13 -5z
m166 -1 c-7 -2 -19 -2 -25 0 -7 3 -2 5 12 5 14 0 19 -2 13 -5z m50 0 c-7 -2
-19 -2 -25 0 -7 3 -2 5 12 5 14 0 19 -2 13 -5z m525 -97 c35 -78 42 -549 8
-613 -11 -21 -22 -30 -31 -26 -8 3 -15 0 -15 -6 0 -17 -67 -81 -84 -81 -9 0
-19 -7 -22 -15 -8 -19 -21 -19 -40 0 -13 12 -11 21 15 72 69 138 131 374 131
503 0 79 12 190 20 190 4 0 12 -11 18 -24z m1826 -267 c-19 -57 -73 -192 -118
-299 -148 -347 -216 -529 -274 -726 -34 -116 -59 -187 -63 -177 -7 21 0 53 12
53 5 0 9 5 9 11 0 5 -4 7 -10 4 -5 -3 -10 1 -10 9 0 9 6 16 13 16 7 0 8 3 2 8
-16 12 -18 35 -2 29 11 -4 13 0 9 16 -2 12 -10 28 -16 36 -8 11 -8 13 1 8 12
-8 30 49 19 60 -3 4 -7 0 -7 -8 -2 -18 -19 67 -21 104 -2 30 -18 38 -18 8 0
-23 -22 -40 -28 -23 -6 19 -22 14 -22 -8 0 -11 5 -20 11 -20 5 0 7 -5 3 -12
-6 -9 -9 -9 -12 0 -6 19 -22 14 -22 -8 0 -11 -4 -20 -9 -20 -5 0 -11 -10 -14
-22 -4 -12 -9 -20 -12 -16 -3 3 4 27 15 54 12 27 29 67 38 89 34 81 324 650
333 653 5 2 9 11 9 20 0 11 3 13 8 6 5 -9 11 -8 20 2 7 8 8 14 2 14 -5 0 -10
5 -10 10 0 6 9 10 20 10 11 0 20 5 20 12 0 6 7 18 15 27 22 23 63 82 74 109 6
12 14 22 19 22 4 0 16 14 26 31 31 52 28 27 -10 -82z m-3669 -237 c-13 -33
-19 5 -16 106 3 169 16 197 19 43 1 -74 0 -141 -3 -149z m3267 -244 c-166
-322 -193 -372 -203 -383 -14 -14 22 88 37 106 8 8 14 35 14 58 0 23 5 51 10
62 11 20 9 22 -40 23 -17 1 -25 6 -24 19 2 22 -5 22 -22 0 -7 -10 -16 -15 -20
-10 -4 4 2 21 14 37 28 37 28 42 -3 28 -13 -6 -23 -15 -22 -20 1 -6 -7 -15
-18 -21 -11 -7 -22 -14 -25 -17 -3 -3 -14 -12 -24 -20 -18 -14 -19 -14 -8 5
34 62 251 244 332 278 19 8 51 31 70 50 19 20 36 31 38 27 2 -5 -46 -105 -106
-222z m-171 -175 c-4 -35 -5 -36 -12 -13 -4 14 -7 19 -8 11 -1 -8 -4 -12 -7
-9 -7 8 14 48 24 48 5 0 6 -17 3 -37z m-2301 -40 c0 -10 -52 -75 -56 -70 -7 7
36 77 47 77 5 0 9 -3 9 -7z m-65 -235 c-12 -38 -58 -139 -62 -134 -4 3 40 127
52 147 11 17 16 9 10 -13z m2472 -30 c-3 -8 -6 -5 -6 6 -1 11 2 17 5 13 3 -3
4 -12 1 -19z m4510 -24 c-3 -3 -12 -4 -19 -1 -8 3 -5 6 6 6 11 1 17 -2 13 -5z
m67 -12 c2 -4 -4 -9 -15 -9 -10 -1 -19 2 -19 8 0 11 27 12 34 1z m76 -23 c0
-5 -4 -7 -10 -4 -5 3 -10 2 -10 -3 0 -6 -6 -12 -14 -15 -10 -4 -12 0 -9 14 5
20 43 27 43 8z m-4460 -20 c0 -5 -4 -9 -10 -9 -5 0 -10 7 -10 16 0 8 5 12 10
9 6 -3 10 -10 10 -16z m4400 11 c0 -5 -2 -10 -4 -10 -3 0 -8 5 -11 10 -3 6 -1
10 4 10 6 0 11 -4 11 -10z m-1245 -29 c-5 -9 -62 -41 -72 -41 -13 0 14 24 41
36 38 16 39 16 31 5z m1302 -23 c-3 -8 -6 -5 -6 6 -1 11 2 17 5 13 3 -3 4 -12
1 -19z m-4201 -3 c4 -8 12 -15 20 -15 11 0 13 -11 10 -46 -3 -44 -2 -46 20
-41 35 6 30 -7 -18 -47 -39 -33 -168 -106 -189 -106 -5 0 -9 9 -9 19 0 11 -4
23 -10 26 -12 8 22 72 61 116 17 19 43 51 56 72 27 39 50 47 59 22z m4221
-127 c-3 -7 -5 -2 -5 12 0 14 2 19 5 13 2 -7 2 -19 0 -25z m-8086 -37 c12 -22
27 -38 33 -37 6 2 7 1 3 -2 -4 -2 -3 -10 4 -18 7 -8 7 -14 1 -14 -10 0 -28 24
-62 85 -11 20 -16 34 -11 30 6 -3 20 -23 32 -44z m3420 -12 c-8 -22 -9 -22 -9
9 1 19 5 29 10 24 5 -5 5 -19 -1 -33z m-2640 -36 c-15 -29 -40 -59 -41 -50 0
14 33 67 43 67 4 0 3 -8 -2 -17z m2618 -57 c-7 -31 -14 -54 -16 -52 -3 2 1 30
7 61 6 31 14 54 17 52 3 -3 -1 -31 -8 -61z m-3330 -10 c-3 -3 -11 5 -18 17
-13 21 -12 21 5 5 10 -10 16 -20 13 -22z m671 0 c0 -2 -7 -9 -15 -16 -13 -11
-14 -10 -9 4 5 14 24 23 24 12z m180 -36 c0 -5 -17 -12 -37 -15 -35 -5 -62
-12 -133 -31 -23 -6 -24 -5 -11 10 8 10 28 23 45 31 35 14 136 18 136 5z
m-2712 -63 c2 -37 0 -47 -12 -47 -12 0 -16 12 -16 51 0 66 24 62 28 -4z m5172
33 c0 -5 -5 -10 -11 -10 -5 0 -7 5 -4 10 3 6 8 10 11 10 2 0 4 -4 4 -10z
m1370 -203 c0 -30 31 -67 57 -67 11 0 20 -7 20 -15 0 -10 -10 -15 -28 -15 -38
0 -86 69 -73 105 9 23 24 18 24 -8z m-2734 -35 c38 -56 142 -332 126 -332 -4
0 -16 28 -26 62 -25 78 -99 244 -127 281 -13 18 -16 28 -8 25 8 -3 24 -19 35
-36z m4184 19 c0 -23 -38 -91 -51 -91 -12 0 -11 26 2 73 7 26 15 37 29 37 13
0 20 -7 20 -19z m-100 -73 c0 -19 -18 -43 -25 -36 -9 9 4 48 16 48 5 0 9 -6 9
-12z m1726 -79 c3 -5 -21 -10 -53 -11 -181 -5 -271 14 -103 22 112 5 147 3
156 -11z m-1706 -15 c0 -8 -4 -12 -10 -9 -5 3 -10 13 -10 21 0 8 5 12 10 9 6
-3 10 -13 10 -21z m-520 -34 c0 -5 -2 -10 -4 -10 -3 0 -8 5 -11 10 -3 6 -1 10
4 10 6 0 11 -4 11 -10z m1772 -522 c20 -17 31 -77 17 -94 -29 -35 -89 11 -89
67 0 37 40 52 72 27z m472 -21 c34 -45 33 -59 -9 -81 -34 -19 -35 -19 -56 0
-19 17 -49 75 -49 95 0 4 17 10 38 12 20 2 40 4 44 5 4 1 18 -13 32 -31z m137
23 c19 -11 49 -70 49 -97 0 -10 -6 -13 -16 -9 -8 3 -25 1 -37 -5 -16 -9 -22
-9 -25 0 -2 6 -9 17 -16 24 -6 6 -19 24 -28 38 -15 24 -15 27 0 43 19 18 45
21 73 6z m-442 -29 c36 -50 22 -81 -36 -81 -37 0 -58 25 -69 78 l-6 32 45 0
c39 0 49 -4 66 -29z m149 17 c7 -7 12 -21 12 -33 0 -12 5 -26 10 -31 16 -16 0
-44 -25 -44 -46 0 -110 78 -90 110 9 14 79 12 93 -2z m-7479 -144 c27 -46 26
-51 -4 -23 -13 13 -25 32 -25 42 0 25 5 21 29 -19z m7540 17 c32 -32 54 -70
48 -85 -6 -15 -59 -28 -82 -20 -16 7 -45 65 -45 91 0 12 30 30 53 32 4 1 16
-8 26 -18z m161 -7 c17 -15 40 -43 50 -64 11 -21 42 -54 69 -74 59 -44 114
-103 108 -119 -2 -7 -21 -15 -43 -19 -37 -6 -41 -4 -90 47 -39 41 -54 51 -63
42 -9 -9 -17 -5 -36 17 -27 31 -25 46 6 46 11 0 19 7 19 16 0 12 -7 14 -27 10
-34 -7 -41 -3 -76 51 -39 61 -39 62 40 72 6 0 26 -11 43 -25z m148 -50 c13
-42 21 -78 19 -80 -8 -8 -88 81 -94 104 -5 22 18 51 42 52 6 0 20 -34 33 -76z
m-739 18 c29 -53 19 -72 -28 -52 -32 13 -76 75 -65 91 3 6 20 9 37 7 26 -2 36
-11 56 -46z m126 42 c14 -6 45 -63 45 -85 0 -5 -18 -9 -40 -9 -35 0 -43 5 -70
41 -16 23 -27 45 -24 50 6 10 65 12 89 3z m162 -16 c12 -13 24 -37 27 -54 6
-27 4 -32 -16 -36 -13 -2 -31 -2 -41 0 -20 4 -79 91 -71 104 3 4 22 8 43 8 26
0 44 -7 58 -22z m-95 -134 c4 -3 26 -32 49 -65 27 -41 36 -61 27 -63 -32 -11
-85 -13 -101 -4 -22 11 -80 125 -71 139 6 11 76 5 96 -7z m173 -40 c25 -87 11
-113 -39 -73 -31 25 -76 91 -76 114 0 11 12 15 49 15 l50 0 16 -56z m196 -16
l55 -73 -77 -2 c-87 -3 -106 8 -116 71 -7 44 17 76 56 76 21 0 38 -15 82 -72z
m-8436 -476 c-3 -3 -11 0 -18 7 -9 10 -8 11 6 5 10 -3 15 -9 12 -12z m130 -50
c-3 -3 -11 0 -18 7 -9 10 -8 11 6 5 10 -3 15 -9 12 -12z m6530 -83 c11 -17
-94 -103 -139 -115 -28 -7 -28 -6 -24 28 3 26 0 34 -9 31 -26 -10 -12 7 30 35
72 50 120 57 142 21z m-6310 -17 c-3 -3 -11 0 -18 7 -9 10 -8 11 6 5 10 -3 15
-9 12 -12z m6775 -52 c22 -18 29 -29 20 -30 -8 0 -27 -15 -42 -33 -14 -19 -39
-40 -55 -48 -15 -8 -53 -28 -83 -44 -30 -16 -63 -30 -73 -32 -10 -2 -37 -16
-60 -31 -88 -60 -157 -93 -177 -87 -24 8 -25 2 -3 -21 16 -15 16 -17 -3 -30
-10 -8 -28 -22 -39 -32 -11 -11 -30 -24 -42 -31 -19 -10 -23 -9 -23 4 0 8 -4
15 -10 15 -5 0 -10 -7 -10 -15 0 -9 -10 -15 -26 -15 -19 0 -25 4 -22 18 2 10
11 16 22 14 22 -4 60 34 52 53 -6 15 -44 17 -64 2 -7 -6 -15 -8 -17 -5 -3 2
17 23 43 45 26 23 70 62 97 88 33 30 96 69 183 112 74 36 149 76 168 89 33 23
83 41 114 43 9 1 31 -12 50 -29z m-6594 -21 c8 -14 -10 -11 -32 6 -18 13 -18
14 4 8 12 -3 25 -9 28 -14z m5919 -69 c11 -18 -24 -58 -46 -53 -13 4 -29 -3
-44 -17 -28 -26 -30 -23 -13 14 11 26 40 42 57 32 5 -4 12 3 16 14 7 21 20 26
30 10z m-3443 -312 c-7 -7 -12 -8 -12 -2 0 14 12 26 19 19 2 -3 -1 -11 -7 -17z
m365 4 c-22 -24 -21 -27 5 -52 12 -11 17 -20 12 -20 -17 0 -54 31 -54 45 0 8
10 21 22 29 30 21 35 20 15 -2z m61 -16 c2 -16 -1 -33 -7 -39 -17 -17 -24 -1
-9 23 11 18 10 23 -7 37 l-20 15 20 -4 c14 -2 21 -12 23 -32z m188 19 c-3 -8
2 -19 12 -24 16 -10 16 -10 0 -11 -10 0 -18 -7 -18 -16 0 -8 -4 -13 -8 -10
-11 7 -2 76 10 76 6 0 8 -7 4 -15z m101 9 c-3 -3 -12 -4 -19 -1 -8 3 -5 6 6 6
11 1 17 -2 13 -5z m310 -56 c-2 -13 -4 -3 -4 22 0 25 2 35 4 23 2 -13 2 -33 0
-45z m163 52 c0 -5 -4 -10 -9 -10 -6 0 -13 5 -16 10 -3 6 1 10 9 10 9 0 16 -4
16 -10z m98 -2 c21 -21 14 -57 -14 -70 -24 -11 -29 -9 -51 16 -23 27 -23 29
-7 47 19 22 54 25 72 7z m-1174 -14 c9 -25 7 -56 -4 -49 -5 3 -10 17 -10 30 0
17 -7 25 -22 28 -21 4 -20 4 3 6 16 0 29 -5 33 -15z m62 -46 c6 -10 4 -10 -9
1 -9 7 -17 25 -16 40 l1 26 8 -27 c4 -14 11 -32 16 -40z m54 43 c0 -11 -4 -23
-10 -26 -6 -4 -10 5 -10 19 0 14 5 26 10 26 6 0 10 -9 10 -19z m76 -15 c0 -19
-4 -32 -8 -30 -4 3 -8 18 -8 35 0 16 4 29 8 29 4 0 8 -15 8 -34z m164 -2 c0
-21 -4 -33 -10 -29 -17 10 -11 65 7 65 2 0 3 -16 3 -36z m240 -11 c0 -9 -6 -8
-20 4 -11 10 -20 23 -20 30 0 9 6 8 20 -4 11 -10 20 -23 20 -30z m165 26 c4
-12 3 -25 -3 -31 -6 -6 -11 1 -14 21 -5 35 7 42 17 10z m-600 0 c11 -17 -1
-21 -15 -4 -8 9 -8 15 -2 15 6 0 14 -5 17 -11z m695 -19 c0 -16 -4 -30 -10
-30 -5 0 -10 14 -10 30 0 17 5 30 10 30 6 0 10 -13 10 -30z m-963 -22 c-3 -8
-6 -5 -6 6 -1 11 2 17 5 13 3 -3 4 -12 1 -19z m240 0 c-3 -8 -6 -5 -6 6 -1 11
2 17 5 13 3 -3 4 -12 1 -19z m3207 6 c45 -17 -6 -57 -81 -64 -29 -3 -53 -4
-53 -2 0 14 32 31 47 25 10 -3 15 -2 11 2 -5 5 4 16 20 26 31 20 35 21 56 13z
m233 -190 c7 -7 13 -20 13 -29 0 -13 -6 -16 -25 -13 -20 4 -38 -7 -87 -53 -35
-31 -66 -55 -69 -53 -11 6 -3 62 11 79 7 8 17 12 23 8 5 -3 7 -1 3 5 -3 6 13
26 36 46 43 37 66 39 95 10z m-6317 -65 c0 -14 -16 -11 -29 5 -10 12 -8 13 8
9 12 -3 21 -9 21 -14z"/>
<path d="M5470 10053 c-32 -35 -50 -69 -50 -95 0 -49 24 -28 62 56 26 56 21
75 -12 39z"/>
<path d="M6059 7099 c-9 -5 -4 -10 15 -15 15 -3 32 -2 37 3 13 13 -34 23 -52
12z"/>
<path d="M5610 6656 c0 -2 7 -7 16 -10 8 -3 12 -2 9 4 -6 10 -25 14 -25 6z"/>
<path d="M6088 6422 c-12 -16 -37 -50 -55 -75 -22 -31 -49 -55 -85 -73 -29
-14 -62 -36 -72 -47 -20 -20 -20 -20 5 -13 13 4 34 7 46 7 47 -2 71 19 136
116 37 55 67 103 67 106 0 15 -20 5 -42 -21z"/>
<path d="M9745 5323 c-52 -6 -61 -15 -40 -47 17 -25 55 -36 55 -16 0 6 11 10
25 10 33 0 31 -17 -5 -60 -17 -19 -30 -38 -30 -42 0 -8 65 -28 93 -28 15 0 17
11 17 85 0 83 -1 86 -26 95 -14 6 -31 9 -37 8 -7 -1 -30 -3 -52 -5z"/>
<path d="M9605 5235 c-3 -41 -4 -79 0 -85 8 -13 46 -13 82 1 l28 10 -33 27
c-28 24 -32 33 -32 75 0 39 -3 47 -19 47 -16 0 -20 -11 -26 -75z"/>
<path d="M9737 4993 c-4 -3 -7 -15 -7 -25 0 -22 26 -24 34 -2 10 25 -10 45
-27 27z"/>
<path d="M9811 4646 c-8 -9 -11 -19 -7 -23 9 -9 29 13 24 27 -2 8 -8 7 -17 -4z"/>
<path d="M9672 4495 c-24 -20 -32 -35 -32 -60 0 -51 16 -83 52 -105 80 -48
178 2 178 92 0 60 -34 91 -106 96 -54 4 -63 1 -92 -23z m120 -49 c29 -44 -23
-91 -68 -61 -30 19 -31 49 -2 69 23 16 57 12 70 -8z"/>
<path d="M9710 4254 c-47 -20 -70 -51 -70 -97 0 -57 25 -96 76 -119 55 -24
100 -13 139 33 38 47 35 107 -9 153 -18 20 -43 36 -54 36 -11 0 -26 2 -34 5
-7 2 -29 -3 -48 -11z m96 -89 c12 -48 -44 -75 -80 -39 -32 32 -11 64 41 64 27
0 34 -5 39 -25z"/>
<path d="M9733 3773 c9 -2 23 -2 30 0 6 3 -1 5 -18 5 -16 0 -22 -2 -12 -5z"/>
<path d="M3067 5448 c-16 -12 -17 -38 -15 -278 l3 -265 25 -2 c14 -1 35 1 48
4 l22 5 0 264 c0 250 -1 264 -19 274 -26 13 -43 13 -64 -2z"/>
<path d="M2731 5406 c-8 -9 -11 -86 -9 -257 l3 -244 39 -3 c21 -2 43 1 48 6 5
5 9 112 8 248 0 211 -2 240 -17 252 -22 16 -58 15 -72 -2z"/>
<path d="M2903 5323 c-15 -11 -20 -400 -6 -414 6 -6 28 -9 49 -7 l39 3 2 195
c2 107 -1 201 -5 207 -10 16 -63 26 -79 16z"/>
<path d="M3221 5193 c-5 -10 -9 -77 -8 -148 l2 -129 34 -8 c61 -16 62 -14 59
149 l-3 148 -37 3 c-27 2 -39 -1 -47 -15z"/>
<path d="M3387 5133 c-4 -5 -9 -53 -13 -107 -6 -105 0 -126 41 -126 52 0 55 6
55 109 0 53 -4 102 -8 108 -10 16 -68 28 -75 16z"/>
<path d="M840 1830 c0 -5 11 -10 24 -10 14 0 28 5 31 10 4 6 -7 10 -24 10 -17
0 -31 -4 -31 -10z"/>
<path d="M812 1804 c-7 -8 -8 -14 -3 -14 10 0 25 19 20 25 -2 1 -10 -3 -17
-11z"/>
<path d="M5520 3525 c0 -5 5 -17 10 -25 5 -8 10 -10 10 -5 0 6 -5 17 -10 25
-5 8 -10 11 -10 5z"/>
<path d="M5495 3480 c3 -5 8 -10 11 -10 2 0 4 5 4 10 0 6 -5 10 -11 10 -5 0
-7 -4 -4 -10z"/>
<path d="M5515 3450 c-3 -5 -1 -10 4 -10 6 0 11 5 11 10 0 6 -2 10 -4 10 -3 0
-8 -4 -11 -10z"/>
<path d="M5424 3700 c0 -13 4 -16 10 -10 7 7 7 13 0 20 -6 6 -10 3 -10 -10z"/>
<path d="M5411 3624 c0 -11 3 -14 6 -6 3 7 2 16 -1 19 -3 4 -6 -2 -5 -13z"/>
<path d="M8104 643 c-16 -12 -24 -23 -19 -23 6 0 3 -5 -5 -10 -12 -8 -11 -10
7 -10 24 0 93 37 93 50 0 19 -49 15 -76 -7z"/>
<path d="M5749 494 c-15 -18 -2 -47 24 -52 18 -4 41 33 33 54 -7 19 -40 18
-57 -2z"/>
<path d="M8100 230 c0 -5 5 -10 10 -10 6 0 10 5 10 10 0 6 -4 10 -10 10 -5 0
-10 -4 -10 -10z"/>
<path d="M6940 10228 c1 -40 64 -98 106 -98 12 0 28 -10 37 -23 8 -13 39 -49
68 -81 50 -55 52 -59 34 -72 -10 -7 -31 -25 -47 -39 l-28 -26 1 -454 1 -455
49 0 c27 0 49 4 49 9 0 6 -10 8 -22 6 -30 -6 -50 12 -38 35 6 10 10 34 10 52
0 33 19 88 31 88 3 0 6 23 7 50 1 37 -3 50 -14 50 -18 0 -18 19 1 44 20 26 9
90 -22 136 -37 56 -30 72 22 48 41 -19 68 -72 63 -123 -3 -24 -2 -49 3 -56 4
-7 3 -19 -2 -26 -14 -16 -3 -68 22 -112 11 -19 18 -40 15 -47 -6 -16 10 -28
19 -14 11 18 35 10 45 -15 13 -35 33 -31 56 10 9 17 6 27 -22 60 -60 74 -67
116 -28 175 l27 40 -27 23 c-25 22 -35 47 -17 47 12 0 34 57 27 69 -4 6 -20 8
-36 4 -39 -7 -39 12 -1 31 18 10 38 35 53 68 14 30 33 60 42 67 18 15 21 32 5
29 -20 -5 -20 18 1 44 25 32 138 110 267 184 54 31 103 61 108 66 15 15 -105
-1 -131 -17 -21 -13 -136 -46 -142 -40 -2 2 9 11 25 21 39 25 95 74 86 75 -28
3 -89 -4 -94 -12 -7 -12 -87 22 -94 40 -3 7 -1 19 5 26 8 10 6 15 -9 20 -13 4
-21 15 -21 29 0 12 -3 26 -6 29 -9 9 -46 -12 -39 -23 3 -4 -9 -11 -26 -15 -17
-4 -33 -13 -36 -20 -2 -8 -16 -21 -30 -31 -24 -15 -26 -15 -20 0 4 9 1 25 -5
36 -10 15 -9 23 6 39 11 12 25 21 33 21 7 0 13 4 13 9 0 5 12 14 28 19 20 8
-11 11 -125 11 l-153 1 0 -39 c0 -22 -4 -42 -8 -45 -4 -2 -28 15 -52 40 -43
43 -70 56 -70 32z m500 -125 c0 -7 -3 -12 -7 -11 -5 1 -18 -3 -30 -10 -15 -8
-23 -9 -23 -2 0 5 7 10 15 10 8 0 15 6 15 13 0 8 7 14 15 14 8 0 15 -6 15 -14z
m-190 -522 c18 -16 28 -31 23 -34 -8 -5 -73 47 -73 58 0 13 21 3 50 -24z"/>
<path d="M10219 10122 c-9 -31 -22 -79 -28 -107 -13 -56 -33 -89 -133 -222
-38 -50 -85 -122 -105 -160 -126 -242 -122 -230 -104 -343 6 -41 8 -37 12 43
5 85 8 94 69 210 75 146 105 191 183 278 89 99 119 158 125 249 6 104 0 120
-19 52z"/>
<path d="M7490 10149 c0 -5 5 -7 10 -4 6 3 10 8 10 11 0 2 -4 4 -10 4 -5 0
-10 -5 -10 -11z"/>
<path d="M1137 10106 c-3 -8 0 -22 7 -32 11 -15 12 -13 8 14 -5 36 -7 38 -15
18z"/>
<path d="M5653 10023 c4 -6 24 -14 44 -18 77 -13 177 -81 219 -146 29 -47 53
-52 27 -7 -26 47 -104 123 -150 147 -45 22 -150 41 -140 24z"/>
<path d="M7843 9954 c-41 -20 -111 -96 -94 -102 6 -2 40 23 74 57 34 33 60 61
57 61 -3 0 -20 -8 -37 -16z"/>
<path d="M8059 9882 c-15 -9 -48 -32 -73 -49 -26 -18 -50 -33 -54 -33 -8 0
-83 -59 -159 -126 -105 -92 -208 -157 -266 -168 -20 -4 -37 -11 -37 -16 0 -24
29 -18 108 22 48 25 101 48 117 52 29 6 28 4 -21 -41 -28 -27 -82 -64 -119
-84 -37 -19 -67 -40 -67 -45 -1 -5 23 -21 52 -36 29 -15 55 -29 57 -32 6 -6
-23 -60 -40 -74 -12 -10 -16 -9 -21 3 -10 26 -29 17 -22 -10 8 -33 -27 -115
-48 -115 -13 0 -16 -14 -18 -72 -2 -99 1 -140 14 -155 7 -9 6 -14 -6 -19 -9
-3 -16 -13 -16 -20 0 -8 -7 -17 -15 -20 -12 -5 -23 -44 -11 -44 17 0 66 24 70
36 3 8 12 14 21 14 8 0 20 11 25 25 10 26 8 35 -36 147 -10 26 -15 51 -11 55
9 8 107 -96 107 -113 0 -7 7 -14 15 -18 8 -3 13 -13 10 -23 -4 -11 -1 -10 6 4
9 17 8 28 -5 54 -9 18 -16 42 -16 54 0 13 -6 28 -14 34 -15 12 -31 79 -22 88
7 7 45 -38 46 -54 0 -7 8 -32 19 -55 10 -24 24 -59 30 -79 14 -45 14 -129 0
-129 -5 0 -8 -4 -4 -9 6 -11 95 36 95 50 0 5 -4 9 -9 9 -12 0 -51 129 -44 146
6 16 33 19 33 4 0 -11 47 -58 94 -95 14 -11 28 -30 31 -42 6 -26 42 -40 59
-23 8 8 7 15 -6 24 -10 7 -18 23 -18 34 0 11 -8 27 -18 34 -26 19 -95 117 -96
136 -1 9 -9 33 -18 52 -9 19 -18 46 -20 60 -2 17 -9 25 -23 25 -25 -1 -44 23
-45 54 0 21 3 23 30 18 33 -7 37 3 20 47 -6 17 -6 27 1 32 6 3 8 18 4 33 -14
54 -13 94 1 109 9 8 13 21 10 29 -4 9 10 32 33 56 21 23 52 56 67 72 41 43
184 145 204 145 5 0 14 9 20 20 6 11 15 18 21 15 5 -4 9 1 9 9 0 19 2 19 -31
-2z m-364 -442 c-3 -5 -10 -10 -16 -10 -5 0 -9 5 -9 10 0 6 7 10 16 10 8 0 12
-4 9 -10z"/>
<path d="M7543 9598 c-24 -12 -31 -38 -10 -38 6 1 26 12 42 25 26 21 27 25 10
24 -11 0 -30 -5 -42 -11z"/>
<path d="M10130 9538 c0 -37 25 -37 26 0 1 18 -4 29 -13 29 -8 0 -13 -12 -13
-29z"/>
<path d="M7736 9477 c-16 -12 -16 -14 -3 -14 9 0 18 6 21 14 3 7 4 13 3 13 -2
0 -11 -6 -21 -13z"/>
<path d="M10118 9198 c-1 -161 -2 -345 -3 -408 l0 -115 42 3 c23 2 51 -1 62
-8 l21 -11 0 373 c0 323 -2 369 -14 353 -8 -11 -12 -23 -10 -27 2 -4 0 -9 -6
-13 -6 -3 -13 1 -16 9 -7 18 -34 22 -34 6 0 -5 5 -10 10 -10 6 0 10 -8 10 -17
0 -15 -2 -15 -9 -4 -7 11 -11 6 -14 -20 -2 -19 -4 -2 -4 36 0 39 1 62 4 52 2
-9 8 -15 13 -12 5 3 7 11 5 18 -2 7 -6 25 -10 41 -5 23 -8 27 -16 15 -7 -11
-9 -9 -9 9 0 12 -4 22 -9 22 -6 0 -11 -117 -13 -292z"/>
<path d="M7955 9350 c-3 -5 -1 -10 4 -10 6 0 11 5 11 10 0 6 -2 10 -4 10 -3 0
-8 -4 -11 -10z"/>
<path d="M7895 9309 c-11 -16 -1 -19 13 -3 7 8 8 14 3 14 -5 0 -13 -5 -16 -11z"/>
<path d="M7828 9273 c7 -3 16 -2 19 1 4 3 -2 6 -13 5 -11 0 -14 -3 -6 -6z"/>
<path d="M7420 9229 c7 -11 14 -19 16 -16 7 7 -7 37 -17 37 -6 0 -5 -9 1 -21z"/>
<path d="M6400 9210 c0 -5 11 -16 24 -25 13 -8 44 -43 70 -76 50 -64 73 -74
38 -17 -18 29 -117 128 -128 128 -2 0 -4 -4 -4 -10z"/>
<path d="M7248 9073 c7 -3 16 -2 19 1 4 3 -2 6 -13 5 -11 0 -14 -3 -6 -6z"/>
<path d="M7210 9044 c0 -8 5 -12 10 -9 6 4 8 11 5 16 -9 14 -15 11 -15 -7z"/>
<path d="M6580 8988 c0 -11 30 -78 35 -78 3 0 -2 17 -10 37 -15 36 -25 52 -25
41z"/>
<path d="M7431 8904 c0 -11 3 -14 6 -6 3 7 2 16 -1 19 -3 4 -6 -2 -5 -13z"/>
<path d="M6694 8839 c24 -27 52 -71 62 -99 26 -74 29 -52 4 29 -23 72 -48 104
-88 114 -18 4 -15 -3 22 -44z"/>
<path d="M7709 8781 c-20 -11 -54 -25 -78 -32 -36 -11 -40 -14 -28 -26 12 -12
20 -11 58 6 52 25 96 57 88 65 -3 3 -21 -3 -40 -13z"/>
<path d="M7498 8783 c7 -3 16 -2 19 1 4 3 -2 6 -13 5 -11 0 -14 -3 -6 -6z"/>
<path d="M7435 8750 c-3 -5 -1 -10 4 -10 6 0 11 5 11 10 0 6 -2 10 -4 10 -3 0
-8 -4 -11 -10z"/>
<path d="M7663 8653 c-10 -3 -13 -38 -13 -124 0 -106 8 -144 23 -106 3 6 6 1
7 -13 0 -14 7 -33 14 -43 13 -17 15 -16 27 11 8 18 18 28 26 25 17 -7 17 8 -7
121 -13 63 -26 102 -40 116 -11 11 -21 20 -22 19 -2 0 -9 -3 -15 -6z"/>
<path d="M10163 8613 c-7 -2 -13 -14 -13 -25 0 -14 6 -19 23 -16 14 2 22 10
22 22 0 21 -12 28 -32 19z"/>
<path d="M10062 8527 c-24 -7 -52 -34 -100 -96 -37 -47 -118 -138 -182 -201
-245 -246 -450 -457 -450 -464 0 -4 9 -5 19 -1 215 68 596 -72 829 -305 l62
-62 0 571 0 571 -72 -1 c-40 -1 -88 -6 -106 -12z"/>
<path d="M6930 8442 c0 -13 23 -32 38 -32 7 0 10 4 7 10 -9 14 -45 32 -45 22z"/>
<path d="M6915 8301 c-5 -10 43 -61 57 -61 5 0 8 -5 8 -11 0 -12 62 -91 67
-85 13 13 -71 146 -92 146 -8 0 -15 5 -15 10 0 13 -17 13 -25 1z"/>
<path d="M8978 8163 c-36 -49 -74 -104 -83 -123 -57 -111 33 -291 178 -354 62
-28 177 -50 190 -37 18 18 -3 28 -66 33 -121 10 -217 72 -266 170 -51 101 -46
131 47 278 50 79 74 120 69 120 -2 0 -33 -39 -69 -87z"/>
<path d="M7650 8175 c0 -8 8 -11 20 -8 11 3 20 7 20 8 0 1 -9 5 -20 8 -12 3
-20 0 -20 -8z"/>
<path d="M7240 7823 c1 -4 7 -35 15 -68 22 -89 20 -207 -4 -254 -11 -20 -26
-43 -35 -50 -8 -7 -13 -18 -10 -25 3 -8 -3 -16 -13 -20 -10 -4 -48 -25 -84
-47 -66 -40 -67 -40 -56 -70 16 -42 44 -37 108 20 39 35 67 73 97 131 39 76
42 87 42 165 0 82 -28 207 -50 220 -6 3 -10 3 -10 -2z"/>
<path d="M9440 7745 c-8 -2 -32 -6 -53 -10 -55 -9 -107 -64 -107 -113 0 -99
125 -270 298 -409 174 -140 282 -197 450 -238 39 -9 72 -20 72 -24 3 -296 7
-431 13 -437 5 -5 34 -9 65 -9 l57 0 3 421 2 421 -70 69 c-188 185 -435 306
-665 327 -27 3 -57 3 -65 2z"/>
<path d="M7255 7359 c-42 -55 -88 -89 -147 -108 -42 -14 -48 -31 -18 -61 26
-26 128 -56 143 -41 13 13 -6 37 -36 47 -12 4 -32 14 -45 22 -17 11 -20 18
-11 28 20 24 50 15 105 -32 60 -51 80 -50 109 6 17 33 35 39 35 13 0 -28 -37
-82 -65 -95 -28 -12 -34 -38 -9 -38 48 0 75 40 83 124 3 33 11 61 17 63 14 5
34 -49 34 -90 0 -45 -43 -112 -82 -127 -18 -8 -34 -14 -36 -15 -1 -1 21 -26
48 -56 28 -30 57 -62 66 -72 13 -16 30 -18 122 -16 156 3 202 9 202 24 0 11
-31 13 -151 10 -150 -4 -189 2 -189 31 0 21 34 27 180 32 80 2 148 7 152 10 3
4 8 25 10 47 2 35 0 40 -22 45 -18 4 -30 0 -40 -13 -17 -20 -53 -25 -84 -12
-15 7 -17 5 -12 -13 4 -12 2 -23 -6 -28 -6 -4 -14 -2 -16 4 -2 6 -10 8 -18 5
-8 -3 -14 -1 -14 4 0 4 -9 14 -21 21 -14 9 -19 10 -14 2 7 -11 -10 -29 -27
-30 -11 0 -10 38 0 44 5 3 7 19 4 36 -2 17 0 30 4 29 23 -4 34 3 34 21 0 37
17 21 23 -21 3 -23 13 -49 21 -58 20 -19 21 -3 2 24 -21 30 -11 86 19 113 22
19 38 22 101 22 72 0 74 1 74 25 0 16 -6 25 -15 25 -8 0 -15 5 -15 11 0 5 -4
8 -9 4 -14 -8 -21 9 -11 25 6 9 36 16 87 20 69 5 74 6 38 12 -22 4 -150 10
-285 13 -135 4 -252 8 -260 11 -10 2 -30 -15 -55 -47z m221 -326 c-10 -10 -19
5 -10 18 6 11 8 11 12 0 2 -7 1 -15 -2 -18z"/>
<path d="M7923 7373 c9 -2 23 -2 30 0 6 3 -1 5 -18 5 -16 0 -22 -2 -12 -5z"/>
<path d="M7998 7373 c7 -3 16 -2 19 1 4 3 -2 6 -13 5 -11 0 -14 -3 -6 -6z"/>
<path d="M8038 7373 c6 -2 18 -2 25 0 6 3 1 5 -13 5 -14 0 -19 -2 -12 -5z"/>
<path d="M7647 7176 c-6 -15 1 -26 15 -26 4 0 8 9 8 20 0 23 -15 27 -23 6z"/>
<path d="M7986 7165 c-3 -9 0 -15 9 -15 9 0 12 6 9 15 -4 8 -7 15 -9 15 -2 0
-5 -7 -9 -15z"/>
<path d="M8020 7125 c0 -16 16 -20 24 -6 3 5 -1 11 -9 15 -9 3 -15 0 -15 -9z"/>
<path d="M8518 6942 c-294 -1 -458 -6 -458 -12 0 -6 174 -10 491 -10 382 0
490 3 487 12 -3 7 -18 13 -34 13 -16 0 -235 -1 -486 -3z"/>
<path d="M10140 6461 l-45 -6 3 -74 c3 -73 2 -73 -20 -66 -13 4 -34 8 -48 9
-20 1 -25 -4 -25 -24 0 -22 5 -26 50 -32 28 -5 60 -6 71 -3 12 3 35 -2 50 -10
61 -32 64 -27 64 100 l0 115 -27 -2 c-16 0 -48 -4 -73 -7z"/>
<path d="M9223 6400 c0 -30 2 -43 4 -27 2 15 2 39 0 55 -2 15 -4 2 -4 -28z"/>
<path d="M7798 6393 c6 -2 18 -2 25 0 6 3 1 5 -13 5 -14 0 -19 -2 -12 -5z"/>
<path d="M8406 6385 c-3 -8 -1 -15 3 -15 5 0 8 -43 7 -95 -2 -68 1 -95 10 -99
21 -8 24 5 24 116 0 99 -2 108 -19 108 -10 0 -21 -7 -25 -15z"/>
<path d="M9214 6295 c-9 -22 5 -37 27 -30 11 4 140 7 286 6 404 0 325 13 -195
34 -91 3 -114 2 -118 -10z"/>
<path d="M8182 6286 c7 -8 16 -12 21 -9 11 7 -2 23 -19 23 -12 0 -12 -2 -2
-14z"/>
<path d="M8120 6282 c0 -5 6 -16 13 -27 11 -14 16 -15 22 -5 6 9 4 11 -6 6 -8
-4 -6 -1 4 7 16 13 16 15 1 21 -22 8 -34 8 -34 -2z"/>
<path d="M8402 6120 c-12 -11 -25 -20 -29 -19 -4 1 -18 1 -30 0 -22 -1 -23 -4
-23 -103 0 -57 -4 -110 -10 -118 -5 -9 -22 -13 -45 -12 -34 3 -35 2 -24 -19 7
-13 9 -42 6 -71 l-6 -48 105 0 104 0 -2 202 c-2 129 -7 203 -13 205 -6 2 -21
-6 -33 -17z m-15 -72 c-3 -8 -6 -5 -6 6 -1 11 2 17 5 13 3 -3 4 -12 1 -19z
m-4 -229 c-4 -4 -15 -4 -23 1 -8 5 -10 10 -4 10 7 0 16 21 20 48 l9 47 3 -49
c2 -27 0 -52 -5 -57z"/>
<path d="M7466 6111 c-4 -5 -2 -12 3 -15 5 -4 12 -2 15 3 4 5 2 12 -3 15 -5 4
-12 2 -15 -3z"/>
<path d="M7870 6003 c0 -17 15 -18 185 -18 132 0 185 3 185 11 0 8 -37 12
-117 13 -65 1 -148 4 -185 7 -60 4 -68 2 -68 -13z"/>
<path d="M10232 5930 c0 -14 2 -19 5 -12 2 6 2 18 0 25 -3 6 -5 1 -5 -13z"/>
<path d="M10232 5880 c0 -14 2 -19 5 -12 2 6 2 18 0 25 -3 6 -5 1 -5 -13z"/>
<path d="M7538 5503 c6 -2 18 -2 25 0 6 3 1 5 -13 5 -14 0 -19 -2 -12 -5z"/>
<path d="M7768 5494 c19 -13 22 -24 22 -85 0 -76 -2 -73 70 -69 44 2 50 12 50
81 0 34 5 61 13 67 7 6 42 13 77 15 36 2 -7 4 -95 5 -147 2 -158 1 -137 -14z"/>
<path d="M8093 5503 c15 -2 37 -2 50 0 12 2 0 4 -28 4 -27 0 -38 -2 -22 -4z"/>
<path d="M8193 5503 c15 -2 39 -2 55 0 15 2 2 4 -28 4 -30 0 -43 -2 -27 -4z"/>
<path d="M10233 5340 c0 -30 2 -43 4 -27 2 15 2 39 0 55 -2 15 -4 2 -4 -28z"/>
<path d="M7997 5220 c4 -14 -2 -23 -21 -31 -43 -20 -30 -79 17 -79 11 0 26 8
33 18 25 32 14 112 -16 112 -13 0 -17 -6 -13 -20z"/>
<path d="M7836 4913 c-3 -4 -6 -17 -6 -30 0 -25 15 -31 23 -10 3 9 28 12 86
10 44 -1 83 2 85 6 6 10 -2 11 -88 16 -38 2 -74 6 -81 9 -7 2 -16 2 -19 -1z"/>
<path d="M8096 4899 c4 -8 -1 -9 -16 -4 -16 5 -20 4 -15 -5 5 -8 27 -10 74 -5
36 4 68 9 71 12 3 3 -12 3 -32 2 -20 -2 -40 0 -44 4 -12 12 -46 8 -38 -4z"/>
<path d="M8225 4900 c-3 -5 1 -10 10 -10 9 0 13 5 10 10 -3 6 -8 10 -10 10 -2
0 -7 -4 -10 -10z"/>
<path d="M6510 4830 c0 -5 5 -10 11 -10 5 0 7 5 4 10 -3 6 -8 10 -11 10 -2 0
-4 -4 -4 -10z"/>
<path d="M7088 3598 c-178 -222 -183 -237 -174 -482 10 -242 20 -319 51 -372
40 -68 194 -199 213 -180 3 3 -1 6 -8 6 -19 0 -183 174 -168 179 7 2 32 23 54
47 23 24 46 44 53 44 20 0 12 36 -14 60 -34 32 -32 46 4 21 l28 -20 13 23 c7
13 9 29 6 35 -14 22 11 10 37 -17 l27 -28 -35 -14 c-29 -11 -34 -18 -30 -38 2
-14 14 -35 26 -48 12 -13 20 -27 16 -30 -3 -3 -17 6 -30 20 -27 29 -37 32 -37
13 0 -13 80 -97 93 -97 4 0 3 9 -3 21 -25 45 0 41 54 -10 l57 -54 34 33 c19
19 35 30 35 24 0 -16 -60 -64 -89 -70 -28 -7 -101 -71 -101 -89 1 -23 121
-117 155 -120 14 -2 25 0 25 3 0 4 32 32 71 62 40 30 80 62 91 70 19 15 13 22
-135 170 -186 188 -216 224 -199 251 10 16 7 24 -19 54 -35 39 -45 42 -70 19
-25 -22 -62 -10 -53 18 3 11 7 28 9 37 3 19 -32 61 -52 61 -21 0 -28 49 -10
67 14 15 18 14 44 -2 64 -42 231 -225 305 -335 88 -132 182 -244 262 -313 51
-44 56 -46 56 -25 -1 27 -18 52 -43 61 -14 5 -18 16 -16 45 4 46 -10 122 -22
122 -5 0 -9 -20 -9 -44 0 -54 -12 -65 -34 -31 -9 14 -35 44 -59 67 -52 54
-107 123 -107 136 0 6 4 12 10 14 6 2 5 13 -3 28 -7 14 -23 57 -36 95 -23 68
-33 93 -80 200 -12 28 -22 55 -21 60 2 6 2 17 1 26 -1 18 -76 145 -102 175
-24 26 -24 45 1 94 23 44 24 50 11 50 -5 0 -43 -42 -83 -92z m11 -175 c12 -43
25 -87 28 -98 3 -11 2 -17 -2 -13 -5 4 -15 2 -23 -4 -12 -10 -18 -8 -33 12
-10 14 -24 32 -32 41 -14 16 -11 39 7 51 6 4 7 10 3 14 -4 4 -21 -6 -38 -22
l-30 -29 13 26 c15 29 70 97 79 98 3 1 16 -34 28 -76z m39 -135 c7 -7 12 -18
12 -26 0 -12 -3 -12 -15 -2 -12 10 -15 10 -16 -1 0 -8 -4 -5 -8 6 -14 32 3 47
27 23z"/>
<path d="M7070 3383 c0 -15 25 -63 32 -63 9 0 -11 58 -23 66 -5 3 -9 1 -9 -3z"/>
<path d="M5771 3584 c0 -11 3 -14 6 -6 3 7 2 16 -1 19 -3 4 -6 -2 -5 -13z"/>
<path d="M8030 3546 c0 -2 11 -6 25 -8 13 -3 22 -1 19 3 -5 9 -44 13 -44 5z"/>
<path d="M8119 3515 c44 -19 64 -19 27 0 -15 8 -36 15 -45 15 -9 -1 -1 -7 18
-15z"/>
<path d="M8198 3483 c7 -3 16 -2 19 1 4 3 -2 6 -13 5 -11 0 -14 -3 -6 -6z"/>
<path d="M8402 3165 c-46 -39 -132 -175 -132 -209 0 -37 8 -29 51 54 19 36 53
91 76 123 24 31 41 57 39 57 -3 0 -18 -11 -34 -25z"/>
<path d="M7925 3091 c-7 -23 10 -61 28 -61 7 0 19 5 27 10 13 8 13 13 0 37
-19 34 -46 41 -55 14z"/>
<path d="M8017 3094 c-3 -3 1 -13 8 -22 66 -82 68 -84 76 -69 12 20 -11 62
-42 81 -30 18 -33 19 -42 10z"/>
<path d="M8711 3046 c-18 -19 -44 -37 -56 -40 -27 -7 -42 -36 -19 -36 8 0 27
13 40 30 14 16 37 35 51 42 15 7 28 19 31 26 7 22 -13 13 -47 -22z"/>
<path d="M8519 3036 c27 -29 33 -32 25 -13 -2 7 -14 19 -27 26 -21 13 -21 12
2 -13z"/>
<path d="M8000 3007 c0 -12 9 -28 21 -35 13 -9 19 -21 17 -37 -2 -13 2 -24 7
-24 6 0 9 19 7 42 -4 58 -52 108 -52 54z"/>
<path d="M8709 2967 c-41 -31 -63 -67 -41 -67 16 0 72 51 72 65 0 7 6 15 13
18 6 2 9 7 6 11 -4 4 -26 -8 -50 -27z"/>
<path d="M7904 2948 l-17 -32 24 16 c13 8 25 23 27 32 6 28 -17 17 -34 -16z"/>
<path d="M7591 2898 c0 -31 2 -59 7 -61 4 -3 6 16 4 41 -5 73 -10 82 -11 20z"/>
<path d="M8902 2818 c-7 -7 -12 -16 -12 -20 0 -15 15 -8 28 12 13 22 3 27 -16
8z"/>
<path d="M8710 2743 c25 -26 46 -50 48 -52 4 -7 45 18 80 50 46 42 33 48 -22
10 -47 -33 -76 -40 -76 -18 0 17 -42 57 -60 57 -8 0 6 -21 30 -47z"/>
<path d="M8949 2748 c-4 -18 -6 -24 -13 -40 -4 -9 -3 -25 3 -35 6 -11 11 -13
11 -5 0 7 5 10 10 7 6 -3 10 4 9 17 0 24 -16 68 -20 56z"/>
<path d="M8646 2702 c-2 -4 -1 -14 5 -22 7 -12 9 -10 9 8 0 23 -5 28 -14 14z"/>
<path d="M8974 2643 c-8 -3 -9 -15 -4 -39 14 -61 30 -56 20 7 -3 21 -10 34
-16 32z"/>
<path d="M7588 2553 c-19 -5 -51 -50 -40 -56 15 -10 83 25 80 41 -3 17 -15 22
-40 15z"/>
<path d="M8990 2533 c0 -20 19 -53 30 -53 6 0 10 13 10 29 0 20 -6 30 -20 34
-13 3 -20 0 -20 -10z"/>
<path d="M7812 2521 c-8 -5 -12 -17 -10 -27 3 -15 6 -14 21 9 18 27 13 34 -11
18z"/>
<path d="M8874 2499 c-3 -6 -1 -16 4 -21 13 -13 45 8 36 23 -7 12 -31 11 -40
-2z"/>
<path d="M7779 2449 c-8 -16 -8 -24 0 -32 14 -14 31 6 31 36 0 23 -17 22 -31
-4z"/>
<path d="M9026 2442 c-10 -19 -11 -33 -5 -45 5 -9 11 -40 13 -70 1 -29 6 -58
10 -65 4 -6 8 -31 10 -54 1 -24 9 -56 18 -73 14 -28 27 -79 62 -239 9 -41 11
-76 7 -85 -6 -10 -2 -24 12 -42 14 -20 17 -32 10 -41 -27 -35 -23 -48 24 -78
26 -16 48 -28 50 -26 2 2 -5 28 -16 57 -10 30 -22 81 -26 114 -4 33 -9 76 -11
95 -11 83 -37 217 -74 377 -22 95 -40 179 -40 188 0 25 -28 17 -44 -13z"/>
<path d="M8988 2223 c-24 -6 -23 -30 1 -43 26 -14 41 -13 41 3 0 22 -24 44
-42 40z"/>
<path d="M8477 1870 c-2 -6 -35 -29 -142 -100 -88 -59 -188 -137 -193 -151 -2
-5 2 -9 8 -9 15 0 95 47 110 65 7 8 16 15 20 15 4 0 35 -36 70 -80 44 -57 67
-79 78 -76 10 3 49 15 87 27 39 12 113 32 165 44 l95 22 8 59 c4 32 6 87 5
122 l-3 63 -153 2 c-83 1 -153 0 -155 -3z"/>
<path d="M9260 1350 l-25 -8 25 -1 c14 -1 35 -4 48 -7 16 -5 22 -2 22 10 0 17
-27 20 -70 6z"/>
<path d="M8775 111 c-55 -54 -65 -68 -57 -76 4 -4 -4 -2 -18 5 -14 7 -22 9
-18 5 4 -4 -2 -16 -14 -26 -21 -19 -20 -19 50 -19 56 0 72 3 72 14 0 24 50 76
73 76 20 1 20 2 4 11 -9 5 -22 7 -27 4 -6 -4 -10 -3 -9 2 3 19 -2 43 -9 43 -4
0 -25 -18 -47 -39z"/>
</g>
</svg>
